<?xml version="1.0" encoding="utf-8"?>
<!-- Generator: Adobe Illustrator 19.2.1, SVG Export Plug-In . SVG Version: 6.00 Build 0)  -->
<svg version="1.1" id="Layer_1" xmlns="http://www.w3.org/2000/svg" xmlns:xlink="http://www.w3.org/1999/xlink" x="0px" y="0px"
	 viewBox="0 0 960 220" style="enable-background:new 0 0 960 220;" xml:space="preserve">
<path d="M876.2,79.7c-7.2,6.4,4.4,21.4-3.4,27c-3.1,2.2-1.1,7.4,2.1,9.4c3.2,2,7.2,2.6,10.1,5.1s3,8.4-0.8,9
	c-17-9.6-38.6-10.5-56.3-2.3c-2.3,1.1-4.7,2.3-7.2,2.1c-2.5-0.2-5.1-2.6-4.3-5c0.5-1.8,2.4-2.7,4.1-3.4c4.8-2,9.6-4.1,14.4-6.1
	c-4.6-5.8-6-14-3.6-20.9s8.6-12.5,15.8-14.2c2.8-0.7,3.9-4.6,2.5-7.2s-4.4-3.9-7.3-4.3c-4.6-0.7-9.5,0.3-13.5,2.8
	c-2.2,1.4-5.2-1.1-5.3-3.7s1.7-4.9,3.4-7c1.6-1.9,3.1-3.8,4.7-5.7c1.7-2,3.6-4.2,6.2-4.6c2.6-0.3,5.5,2.6,4.1,4.8
	c-1.7,2.8,2.5,6.1,5.5,4.9c3-1.2,4.5-4.5,5.7-7.5c2-5,2.7-12.7-2.5-14c-1.6-0.4-1.2-2.8-0.4-4.3c1.8-3.5,3.6-6.9,5.4-10.4
	c1.6-3.1,3.5-6.4,6.6-8c3.2-1.5,8,0.1,8.2,3.6c0.4,5.7-10.4,9.5-7.2,14.3c0.7,1.1,2.1,1.7,3.3,2.1c6.6,2.6,15.2,4.7,19.8-0.6
	c5-5.7,12.4-9.3,20-9.5c4.7-0.1,9.9,1.3,12.5,5.2c1.9,3,1.9,6.7,1.5,10.2c-1.2,10.4-6.1,21.2-15.4,25.9c-9.3,4.8-23.1,0.5-25.6-9.6
	c-1-4.1-0.7-9.4-4.6-11.2c-3.3,4.8-0.7,11.3,1.7,16.7C878.8,68.7,880.5,75.8,876.2,79.7 M863.3,94.2c-1.2,2.7-2.5,5.5-4.8,7.5
	s-5.7,2.9-8.3,1.4c-4.4-2.6-2.9-9.3-0.9-14c-3.9-0.2-7.9,1.9-10,5.3c-2.1,3.3-2.3,7.8-0.4,11.3c2.6,5,9.1,7.4,14.6,6.1
	c5.5-1.3,10-5.8,12.1-11C866.8,98,866.1,93.7,863.3,94.2 M887.7,53.2c-1,1.7,0,4,1.6,5.1c1.7,1.1,3.8,1.1,5.7,0.8
	c8.8-1.4,15.8-10.3,15.1-19.2c-0.3-3.6-4.4-5.8-7.9-5.4c-3.6,0.4-6.6,2.6-9.5,4.7c-0.9,0.7-1.9,1.5-2.2,2.6
	c-0.3,1.1,0.6,2.6,1.7,2.4c3.7-0.7,7.7,2.1,8.3,5.8C897.2,53.2,892.2,54.4,887.7,53.2 M865.8,57.8c0-1.1-0.1-2.3-0.8-3.2
	c-0.4-0.5-1-0.9-1.7-1c-2.3,1.3-3.6,4.2-2.9,6.7c0.6,2.5,3.1,4.5,5.7,4.6C866,62.5,865.9,60.2,865.8,57.8 M866.5,78.7
	c1-0.4,0.9-1.9,0.4-2.8c-1.2-2.1-4.1-3.4-6.2-2.2c-2.1,1.2-2,5.1,0.4,5.7c1.6,1.3,4.3,0.8,5.5-0.9L866.5,78.7z"/>
<path d="M110.9,92.4C98.5,97.7,86,103,73.6,108.3c-2,0.9-4.2,1.8-5.4,3.7c-1.3,2-1.3,4.6-2.4,6.7c-1.2,2.1-4.9,3-5.6,0.7
	c-1.4-4.1-8.8,1-11.8-2.2c-1.9-2,0.1-5.5,2.6-6.7c2.5-1.2,5.6-1.4,7.7-3.2c2.9-2.5,2.9-7,2.7-10.8c-1-17.4-2.1-34.7-3.1-52.1
	c-4,1-7.9,2-11.9,3c-1.2,0.3-2.5,0.6-3.7,0.2c-2.7-0.9-3-5.1-1.1-7.2c1.9-2.2,5-2.8,7.8-3.3c25.5-4.2,51.6-4.6,77.3-1.2
	c3.6,0.5,7.3,1,10.5,2.7c7.5,3.9,11,13.2,9.7,21.5c-1.4,8.3-6.9,15.4-13.6,20.6C126.5,85.8,118.6,89.1,110.9,92.4 M116.9,42.4
	c-12.2-0.2-24.4-0.5-36.6-0.7c-2.9-0.1-5.9-0.1-8.5,1c-2.7,1.1-5,3.7-4.8,6.5c0.8,16.6,1.6,33.3,2.3,49.9c0,1,0.3,2.2,1.3,2.4
	c0.4,0.1,0.7-0.1,1.1-0.2c14.7-5.4,29-11.5,43.1-18.4c6.2-3,12.4-6.3,17.2-11.3c4.8-5,7.8-12.1,6.4-18.8c-0.9-4.2-4.6-7.4-8.7-8.9
	C125.6,42.5,121.2,42.4,116.9,42.4z"/>
<path d="M180.1,94.2c0,2.7-0.1,5.5-1.6,7.8c-1.5,2.3-4.8,3.5-6.9,1.8c-2-1.7-1.6-4.8-1.1-7.3c3.3-17.5,2-35.8-3.6-52.7
	c-1-3-2-6.6,0.1-8.9c1.5-1.6,3.8-1.9,6-2c12.7-0.9,25.5-1.9,38.2-2.8c3.2-0.2,6.8-0.3,9.1,1.8s1.4,7.3-1.8,7.1
	c-12.8-0.8-25.6-0.2-38.3,1.7c-1.9,0.3-4.2,1.2-4.1,3.1c0.3,6.4,1.8,14.4,7.9,16.1c2.5,0.7,5.1,0.1,7.6-0.4c2.5-0.5,5.2-0.8,7.5,0.2
	c2.3,1.1,3.9,4.1,2.6,6.3c-0.5,0.9-1.5,1.5-2.4,1.8c-3.4,1.3-7.1-0.2-10.8-0.5c-3.6-0.3-8.2,1.4-8.2,5.1
	C180.3,79.5,180.2,86.8,180.1,94.2z"/>
<path d="M264.6,121.6c-10.7,0.8-21.4,1.7-32.2,2.5c-2.9,0.2-6.6-0.1-7.4-2.9c-0.3-1-0.1-2.1,0.2-3.1c6.2-28,12.4-56.1,18.7-84.1
	c0.7-3,2.4-6.8,5.5-6.4c3.3,0.5,3.4,5.2,2.7,8.5c-5.4,23.9-10.7,47.8-16.1,71.6c-0.7,3.1-0.1,7.8,3.1,7.5c7.8-0.8,15.6-1.6,23.4-2.5
	c2-0.2,4.1-0.4,6,0.3c1.9,0.7,3.5,2.6,3.1,4.6C271.1,120.5,267.5,121.4,264.6,121.6z"/>
<path d="M696.1,44.2c0.8-2.4,2.3-5.3,4.8-4.9c3.9,4.4,2,11.1-0.1,16.6c-2.1,5.5-4.3,11.1-6.4,16.6c3.5-0.8,6.2-3.6,9-6
	c6.8-5.8,15.7-9,24.7-9c2.2,0.8,2.6,4.1,1.3,6.1c-1.3,2-3.7,3-5.9,3.9c-4.6,1.8-9.1,3.7-13.7,5.5c-1.2,0.5-2.6,1.1-3.3,2.2
	c-0.7,1.1-0.3,3,1,3.3c5.2,1.1,10.1,3.5,14.3,6.9c2.4,2,4.6,5.6,2.5,7.8c-1.9,2.1-5.2,0.8-7.7-0.5c-4.5-2.5-8.9-5-13.4-7.5
	c-1.4-0.8-3-1.6-4.6-1.4c-2.8,0.3-4.3,3.3-5.6,5.8c-1.3,2.5-3.8,5.2-6.4,4.3c-3.1-1-3-5.4-2.2-8.5C687.7,71.5,691.7,57.7,696.1,44.2
	z"/>
<path d="M375.5,91.6c0.4-4.9,1.1-9.8,2.3-14.5c-2.6-1.5-6.1,1.5-8.7,0c-2.8-1.7-0.6-6.2,2.3-7.6c2.9-1.4,6.6-2,8.3-4.8
	c0.6-1.1,0.8-2.3,1-3.5c1-5.9,1.9-11.8,2.9-17.8c0.6-4,1.7-8.5,5.2-10.3c2.3,0.4,4,2.7,4.4,5c0.4,2.3-0.1,4.7-0.6,7
	c-1.3,5.9-2.7,11.7-4,17.6c-0.5,2,2.3,3.1,4.4,3.3c2.1,0.2,4.8,1.7,4,3.6c0.4,2.8-3.1,4.4-5.8,5c-2.8,0.6-6.3,1.7-6.4,4.5
	c-0.3,5.3-0.6,10.5-0.9,15.8c-0.1,1.8-0.3,3.9-1.8,4.9c-1.8,1.3-4.5,0.1-5.6-1.8S375.3,93.8,375.5,91.6z"/>
<path d="M780,68.1c-6.9,0.6-13.9,1.2-20.3,3.9c4.4,1.9,8.7,3.8,13.1,5.8c2.1,0.9,4.2,1.9,5.3,3.9c1.7,3-0.1,7.1-3,9
	c-2.9,1.9-6.6,2.3-10,2.6c-4.6,0.4-9.2,0.8-13.8,1.2c-1.4,0.1-2.9,0.2-4-0.6c-1.8-1.4-1.2-4.5,0.5-5.9c1.8-1.4,4.2-1.6,6.5-1.8
	c5.1-0.4,10.2-0.7,15.3-1.1c-4.9-5.4-16.2-2.9-18.7-9.8c-1.1-3.1,0.6-6.7,3.2-8.8c2.6-2.1,5.9-3,9.2-3.8c2.3-0.6,4.6-1.2,6.9-1.8
	c3-0.8,6.2-1.5,9-0.1C781.8,62.2,782.7,66.8,780,68.1z"/>
<path d="M512.3,50.3c1.4-1.7,4.3-1,5.7,0.7c1.3,1.7,1.5,4.1,1.5,6.3c0,5.9-0.9,11.9-2.6,17.6c1.8,1.4,4.4-0.1,5.8-1.9
	c1.4-1.8,2.4-4.1,4.5-5c3.8-1.6,7.4,2.6,9.4,6.3c1.4,2.5,2.7,5,4.1,7.5c1.6,3,3,7.2,0.4,9.2c-2.8,2.1-6.8-0.7-8.3-3.9
	c-1.5-3.2-2.3-7.1-5.2-9c-3.4,4.3-6.9,8.6-10.3,13c-0.7,0.9-1.5,1.8-2.5,2.1c-1.6,0.5-3.3-0.7-4-2.3c-0.7-1.5-0.7-3.3-0.6-4.9
	c0.4-10.7,0.8-21.4,1.2-32C511.4,52.6,511.5,51.2,512.3,50.3z"/>
<path d="M348.4,59c3-1.3,5.6,3.5,3.9,6.3c-1.6,2.8-5.2,3.8-8.3,4.8s-6.6,2.5-7.5,5.7c6.9,0.3,13.5,3.9,17.4,9.5
	c0.9,1.3,1.7,2.8,1.7,4.4c0.1,4.1-4.2,6.6-7.9,8.2c-1.8,0.8-3.7,1.6-5.5,2.4c-1.9,0.8-3.9,1.7-5.9,1.5c-2.1-0.1-4.2-1.6-4.3-3.7
	c-0.1-2.4,2.4-4.1,4.7-4.6c2.3-0.6,4.9-0.7,6.8-2.1c1.9-1.4,2.3-5,0.1-5.8c-5.7-2.1-11.9-3.1-17.9-2.8c-2.2,0.1-3.7-2.5-3.3-4.6
	c0.4-2.1,2-3.8,3.6-5.2C332.7,67.2,340.3,62.4,348.4,59z"/>
<path d="M444.1,95.8c-1.4,1.3-3.8,0.8-5.1-0.6c-1.3-1.3-1.8-3.3-2.1-5.1c-0.5-3.3-0.5-6.6-0.1-9.9c0.1-1.1,0.3-2.2-0.1-3.3
	c-1.2-3.1-6.8-3.6-6.5-6.9c0.4-3.6,7.7-3.1,7.8-6.8c0.2-7.1,1-14.2,2.5-21.1c0.4-2,1-4.3,2.8-5.4c1.7-1.1,4.8-0.1,4.6,2
	c-0.7,7.4-1.5,14.8-2.2,22.2c-0.1,1.3-0.2,2.6,0.3,3.7c0.6,1.1,2.1,1.8,3.2,1.1c2.4-1.8,6.4-0.3,7,2.6c0.6,2.9-2.4,5.9-5.3,5.3
	c-3.9-0.9-6.8,4-6.6,8c0.1,4,1.8,8,0.9,11.9C445.1,94.4,444.7,95.2,444.1,95.8z"/>
<path d="M554.7,80.5c0.6-6.3,2.9-12.4,6.7-17.5c3.8,3,4.4,9.3,1.2,12.9c1.4,1.3,3.6,0.1,4.8-1.3c1.2-1.4,2.3-3.3,4.2-3.5
	c2.4-0.3,4.1,2.2,4.9,4.4c0.8,2.3,1.6,4.9,3.8,5.9c3.2,1.4,6.5-2.1,7.4-5.5c0.9-3.4,0.7-7.2,2.8-10c0.6-0.8,1.6-1.5,2.4-1.1
	c0.6,0.2,0.9,0.9,1.1,1.4c2.5,6.3,1.4,13.8-2.8,19.1c-2,2.6-4.9,4.7-8.1,4.9c-5.4,0.5-9.8-3.9-13.4-7.9c-2,2.1-4.1,4.2-6.8,5.2
	c-2.7,1-6.2,0.4-7.7-2.1C554.6,84,554.6,82.2,554.7,80.5z"/>
<path d="M632.1,64.7c1.4,0.9,2.5,2.2,3.4,3.5c2.5,3.6,3.6,8.3,2,12.3c-2.5,6.1-10.2,8.3-16.8,7.8c-3.4-0.3-6.8-1.1-9.5-3.2
	c-2.7-2.1-4.4-5.6-3.5-8.9c0.5-2,1.9-3.7,3.4-5.3c2.7-2.9,5.8-5.6,9.6-7C624.4,62.5,628.8,62.5,632.1,64.7 M620,73.3
	c-1.4,0.7-2.8,1.7-3.1,3.2c-0.4,1.9,1.1,3.8,3,4.4c1.8,0.6,3.9,0.2,5.7-0.3c1.6-0.4,3.3-1.1,4.1-2.5c1.2-2.1-0.4-5-2.7-5.8
	C624.8,71.5,622.2,72.2,620,73.3z"/>
<path d="M480.4,88.2c4,0.8,7.9,1.6,11.9,2.4c2.2,0.4,4.5,0.9,6.2,2.4c1.7,1.5,2.4,4.3,0.8,6c-1.5,1.6-4.1,1.2-6.3,0.7
	c-5.2-1.3-10.3-2.5-15.5-3.8c-2.4-0.6-4.9-1.3-6.3-3.3c-1.8-2.6-0.8-6.3,0.7-9.1c3-5.5,7.9-9.9,13.6-12.5c3.3-1.5,7.4-2.3,10.4-0.2
	s2.8,7.8-0.7,8.5c-1.9,0.4-3.7-0.8-5.6-1c-3.2-0.3-5.9,2-8.3,4.1c-0.9,0.8-1.8,1.7-2.2,2.8C478.6,86.4,479.2,87.9,480.4,88.2z"/>
<path d="M672.2,68.8c0,2.9-3.7,4.2-6.6,4s-6.3-0.8-8.3,1.3c-2.5,2.5-1,6.6-0.2,9.9c0.9,3.4-0.4,8.3-3.9,8c-2.5-0.3-3.6-3.2-4.2-5.6
	c-1.6-6.8-2.3-15.2,3.1-19.4c3.6-2.8,8.5-2.6,13.1-2.4C668.2,64.7,672.2,65.7,672.2,68.8z"/>
<path d="M415,82c0.1,1.4,0.1,2.7,0.2,4.1c0.1,1.5,0.1,3.2-0.8,4.4c-1.5,1.9-4.8,1.4-6.3-0.5s-1.5-4.7-0.8-7c0.5-1.7,1.3-3.3,2.8-4.2
	c1.5-0.9,3.7-0.7,4.6,0.8C415,80.4,415,81.2,415,82z"/>
<path d="M414.4,59.3c-2.4-1.3-5.9,0.8-5.8,3.6c0.1,2.8,3.7,4.7,6,3.2C416.9,64.7,416.8,60.6,414.4,59.3z"/>
</svg>
