<?xml version="1.0" encoding="utf-8"?>
<!-- Generator: Adobe Illustrator 19.2.1, SVG Export Plug-In . SVG Version: 6.00 Build 0)  -->
<svg version="1.1" id="Layer_1" xmlns="http://www.w3.org/2000/svg" xmlns:xlink="http://www.w3.org/1999/xlink" x="0px" y="0px"
	 viewBox="0 0 600 280" style="enable-background:new 0 0 600 280;" xml:space="preserve">
<path d="M317.2,184c-2.4,9.2-5.1,18.8-11.9,25.4c-12.6,12.3-33.2,9.2-50.4,5.3c-14.7-3.4-29.8-6.9-42.3-15.5
	c-12.4-8.6-21.7-23.5-19.2-38.4c2.4-14.4,15-25.1,28.3-31.2c6.6-3.1,13.7-5.4,19.6-9.7s10.6-11.2,9.9-18.4
	c-1.3-11.9,3.7-24.1,11.9-32.8c8.2-8.7,19.5-14.3,31.1-17.1c9.5-2.3,19.8-2.7,28.6,1.3s15.7,13.5,14.4,23.2
	c-1.7,12.5-15.8,22.5-13,34.8C330,135,323.6,160.1,317.2,184 M293.3,112.4c5.4-17.3,27.6-27.3,28-45.4c-2.2-6.2-9.2-9.7-15.8-9.7
	c-6.6-0.1-12.9,2.5-19,5c-5.8,2.4-11.8,5-16,9.7c-9.3,10.5-6,27.3-12.2,39.9c-6.4,12.9-21.2,18.7-34,25.4c-12.8,6.7-26,18-24.6,32.3
	c1.5,14.7,17.6,23.1,32.1,26c17.5,3.4,37.7,1.8,50.1-11c11.2-11.6,13.2-29.4,11.5-45.5C292.5,130.2,290.6,121,293.3,112.4
	 M316.9,151c0.7-5.8,1.5-11.5,2.2-17.3c0.3-1.9-0.1-4.7-2.1-4.8c-2.3,5.3-3.7,11.1-3.8,16.9C313.1,148.3,314.5,151.8,316.9,151
	 M291.7,185.6c0.9,1.7,3.4-0.1,4.2-1.8c1.9-3.9,3.6-7.8,5.1-11.8c1.2-3,2.1-6.8-0.2-9.1c-3,6.9-5.9,13.7-8.9,20.6
	C291.7,184.1,291.4,184.9,291.7,185.6 M301.8,149.2c-2.1,2.4-1.9,6.4,0.5,8.5c2.8-3.4,3.7-8.4,2-12.5c-1.5,0.6-2.6,1.9-3.1,3.4
	 M303,133.6c0.5-1.5,1-3.1,1.5-4.6c0.2-0.5,0.3-1.1,0.2-1.7c-0.3-1.5-2.6-1.8-3.8-0.7c-1.2,1-1.4,2.7-1.7,4.3
	c-0.2,1.1-0.3,2.2,0.2,3.2s1.8,1.6,2.7,1C302.7,134.7,302.9,134.1,303,133.6 M252.5,205.6c1.6,1.5,3.9,2.2,6.1,1.7
	c-0.4-3.4-4.7-5.7-7.8-4.2c-0.8,1.1,0.5,2.8,1.8,2.3 M286.2,209.2c2.3-0.6,4.2-2.4,4.9-4.6c-1.8,0.4-3.7,0.8-5.5,1.2
	c-1.1,0.2-2.3,0.5-3,1.4c-0.7,0.9-0.4,2.5,0.7,2.7c0.9-0.3,1.8-0.6,2.7-0.9 M308.6,175.2c-0.4,1.5-0.8,3-1.2,4.5
	c1,1.1,3,0.3,3.6-1.1c0.6-1.3,0.3-2.9,0-4.3C310.3,173.6,308.8,174.2,308.6,175.2 M313.9,113.3c1,0.5,2.1,0.6,3.2,0.3
	c1.1-1.2,0.1-3.6-1.6-3.6c-1.6-0.1-2.8,2.2-1.9,3.5L313.9,113.3z"/>
<path d="M449.7,194.2c-36.7-5.7-48.4-7.4-85.2-13.1c-2.5-0.4-5.3-1-6.8-3.1c-1.5-2.1,0.1-5.9,2.6-5.3c11.1,2.7,22.5,4.7,33.8,6.6
	c54.1,8.9,83.5,11.8,138.2,16.4c3.6,0.3,3.2,6.4,0,7.9c-3.3,1.5-7.1,0.1-10.5-1.1c-13.5-4.4-28.1-3.7-42.4-4.6
	C469.4,197.2,459.5,195.7,449.7,194.2z"/>
<path d="M381.7,130.8c13.3-0.6,26.7-1.2,40-1.8c12.3-0.6,24.7-1.1,37-0.9c37.3,0.6,34.2-2.1,71.4-1.7c5.2,0,11.4,0.4,14.3,4.8
	c-6.4,4.7-15.1,4.3-23.1,3.5c-43-4.4-46-3.1-89.1,0.5c-18.4,1.6-37.4,5.3-54.8-0.8C376.5,132.3,379.5,130.9,381.7,130.8z"/>
<path d="M429.2,82.1c16.9-1.7,33.9-0.9,50.7-2.9c30.4-3.7,36.7-14.8,66.6-8.2c1.1,0.2,2.2,0.5,3,1.4c1.7,1.8,0.1,5-2.3,5.9
	c-2.3,0.9-4.9,0.2-7.4-0.3c-10-1.9-10.4-0.6-20.5,0.7c-50.8,6.5-87.7,11.1-138.2,19.8c-0.3-3.7,3.8-6.1,7.4-7.3
	C401.6,86.5,415.3,83.5,429.2,82.1z"/>
<path d="M461.8,235.2c-1.5,3-5.7,2.6-8.9,1.8c-38-9.9-62.8-17.3-100.5-28.2c-1.1-1.9,0.3-4.5,2.3-5.3c2-0.9,4.3-0.5,6.5-0.1
	c35.3,6.9,55.5,20.8,91.3,24c2.4,0.2,4.9,0.4,7,1.7C461.4,230.3,462.8,233,461.8,235.2z"/>
<path d="M203.4,103.6c-2.7,1.4-5.9,0.3-8.7-0.8C156.7,87.8,118.6,72.9,80.5,58c-6.2-2.4-12.8-5.2-16.3-10.9c4.3-1.5,9,0.4,13.2,2.2
	c36.5,15.6,73.6,29.9,111,43C194.7,94.4,201.6,97.3,203.4,103.6z"/>
<path d="M176.4,205.6c1.8,0.1,3.6,0.3,5.1,1.2c1.5,0.9,2.5,2.8,1.9,4.5c-0.8,2.3-3.9,2.6-6.3,2.5c-21.9-0.1-43.3,5.2-64.7,9.9
	c-2.1,0.5-4.2,0.9-6.2,0.3c-2-0.6-3.7-2.7-3.1-4.8c0.6-2.1,3.1-2.9,5.3-3.3c7.1-1.5,14.2-3,21.3-4.6
	C145.1,208,160.7,204.7,176.4,205.6z"/>
<path d="M375.7,62.5c-0.7-2.3,1.4-4.3,3.3-5.7c10.5-8,21.2-16.1,33.7-20.5c12.4-4.4,27.1-4.7,38.1,2.6c2.2,1.4,4.3,3.4,4.7,5.9
	c0.4,2.6-2.1,5.5-4.5,4.7c-21.9-7.4-47.5-2.7-65.2,12.1c-1.6,1.3-3.1,2.7-5.1,3.2C378.7,65.3,376.3,64.4,375.7,62.5z"/>
<path d="M181.2,127.7c-4.3,3.2-10.2,2.2-15.4,1.1c-20.3-4.3-83.7-16.5-104-20.8c-1.9-0.4-1.8-3.5-0.2-4.6c1.6-1.1,3.7-0.8,5.6-0.4
	c22.1,4,87.2,16,109.2,20C179,123.5,182.3,125.4,181.2,127.7z"/>
<path d="M172.4,172.2c-4.1,4-10.6,4.1-16.4,3.9c-12.2-0.4-77.5-7.7-89.7-8.1c-1.6,0-3.5-0.3-4.2-1.7c-0.7-1.3,0.2-3,1.6-3.7
	c1.3-0.7,2.9-0.8,4.4-0.8c14.2-0.1,81.4,6.9,95.6,6.8C166.9,168.6,171.1,169.1,172.4,172.2z"/>
<path d="M159.4,43.7c-1.9-0.9-1.2-4.1,0.8-5c2-0.8,4.2,0,6.1,0.8c9.6,4.2,18.8,9.4,27.3,15.5c3.1,2.2,18.3,10.8,19.3,14.5
	c-0.7,1.9-3.1,2.6-5,2.2s-3.6-1.8-5.2-3C193.1,61.1,170.6,48.7,159.4,43.7z"/>
<path d="M330.6,230.9c-1.2-1.2-2.5-2.5-3-4.1c-0.6-1.6-0.3-3.7,1.1-4.7c2.4-1.7,5.6,0.7,7.5,2.9c2.3,2.7,4.6,5.3,6.9,8
	c1.8,2,3.5,5.2,1.6,7.1c-2,1.9-5.2-0.1-7.2-2.1C335.2,235.6,332.9,233.2,330.6,230.9z"/>
<path d="M235.9,170.5c-1.9-1.8-3.5-4.1-3.7-6.7c-0.2-2.2,0.8-4.4,1.8-6.3c4.5-8.1,12.1-14.4,21-17.2c3.6-1.1,7.7-1.6,10.8,0.4
	c1.6,1,2.8,2.7,3.8,4.4c5.7,10.2,2.7,24.3-6.7,31.3c-2.4,1.8-5.3,3.1-8.2,2.4C248,177.1,240.9,175.3,235.9,170.5z"/>
</svg>
