<?xml version="1.0" encoding="utf-8"?>
<!-- Generator: Adobe Illustrator 19.2.1, SVG Export Plug-In . SVG Version: 6.00 Build 0)  -->
<svg version="1.1" id="Layer_1" xmlns="http://www.w3.org/2000/svg" xmlns:xlink="http://www.w3.org/1999/xlink" x="0px" y="0px"
	 viewBox="0 0 960 280" style="enable-background:new 0 0 960 280;" xml:space="preserve">
<path d="M67.6,134c71.2-1.5,142.5-3,213.7-4.5c3.8-0.1,8.9,1.1,8.8,4.9c-5.3,1.5-10.9,1.6-16.4,1.7c-70.3,1.6-140.7,3.2-211,4.7
	c-2.2,0-2.9-3.4-1.4-5S65.4,134,67.6,134z M629.7,144.7c74.9,16,149.5,33.7,223.6,52.9c2.2,0.6,5,2.4,3.9,4.3
	c-0.8,1.4-2.9,1.3-4.4,0.9c-69.1-16.4-138.2-32.7-207.3-49.1C639.4,152.3,632.6,150.3,629.7,144.7z M890.3,128.7
	c-36.2,0-72.5,0-108.7,0.1c-18.6,0-37.2,0-55.7,2c-18,1.9-36.8,5.5-53.9-0.5c-0.2-3.3,4.3-4.6,7.7-4.6c67.2-1.3,134.4-2.6,201.6-3.9
	c2.3,0,4.8-0.1,6.8,1.1C890.1,124,891.4,126.7,890.3,128.7L890.3,128.7z M123.5,180.2c58.5-0.3,117-8.9,173.2-25.3
	c4.6-1.4,11.7-1.2,12,3.6c-68,19.2-138.7,28.8-209.4,28.6C105,180.7,114.8,180.3,123.5,180.2z M644.4,104.7c2.3-3,6.4-3.9,10.2-4.5
	C719,89.5,783.3,78.8,847.7,68.1c2.3-0.4,5.4-0.2,5.8,2.1c0.4,2.3-2.5,3.5-4.8,3.9c-63.3,10.6-126.5,21.1-189.8,31.7
	C654,106.5,648.6,107.3,644.4,104.7z M108.1,99.5c5.5-1.1,11.1-0.5,16.7,0c48.5,4.6,97.5,2.8,145.5-5.4c1.8-0.3,3.7-0.6,5.3,0.2
	c1.6,0.8,2.5,3.3,1.1,4.5c-0.6,0.5-1.4,0.7-2.1,0.8c-52.9,9.5-107.1,11.1-160.5,4.8C111.2,104.2,107.2,102.4,108.1,99.5z
	 M781.4,221.3c-2.3,3.5-7.5,2.7-11.5,1.4c-40.9-13.2-81.9-26.3-122.8-39.5c-1-0.3-2.1-0.7-2.5-1.7c-0.7-2,2.1-3.3,4.2-3.3
	c7.5,0,14.7,2.7,21.8,5.4c31.4,11.9,63.5,22,96.1,30.2C772.1,215.1,778.1,216.7,781.4,221.3z M158.4,42.6
	c12.5,7.1,27.1,9.7,41.4,11.7c8.9,1.3,17.9,2.5,26.8,4.2c6.3,1.3,12.6,2.9,18.7,4.9c9.7,3.2,19,7.6,27.7,13
	c-9.3,4.6-20.1-1.2-29.7-5.2c-25.8-10.6-55.5-8.3-81.2-19.2c-2.1-0.9-4.2-2-5.3-3.9C155.7,46.2,156.3,43.2,158.4,42.6z M629.9,84.6
	c-0.5-1.9,1.9-3.2,3.8-3.7c37.2-10.7,74.7-20.2,112.4-28.6c1.8-0.4,3.7-0.8,5.5-0.2c1.7,0.6,3.1,2.7,2.3,4.3
	c-39.6,9.9-79.1,19.7-118.7,29.6C633.2,86.5,630.4,86.5,629.9,84.6z M346.5,201.5c-0.5,0.4-1.1,0.6-1.7,0.8
	c-41.1,12.5-82.7,23.5-124.6,32.8c-0.8,0.2-1.6,0.3-2.3,0.1c-1.9-0.6-2.1-3.4-0.8-4.9c1.3-1.5,3.4-1.9,5.3-2.3
	c39.5-7.9,78.6-18.2,116.9-30.7c1.9-0.6,3.9-1.2,5.8-0.5C346.8,197.5,347.9,200.2,346.5,201.5z M635.9,202.8
	c18.7,3.6,36.3,11.1,53.8,18.5c12.2,5.2,24.3,10.4,36.5,15.6c1.8,0.8,4,2.3,3.4,4.2c-0.7,2-3.6,1.7-5.6,1
	c-31.3-11.2-60.9-28.4-93.8-33.8c-2.1-0.3-2.2-3.7-0.4-5C631.5,202.2,633.8,202.4,635.9,202.8z M321.6,173.1c1.5,0.2,1,2.6,0,3.8
	c-7.5,8.3-19.5,10.5-30.6,12.2c-15.6,2.4-31.2,4.8-46.7,7.2c-0.9,0.1-1.8,0.3-2.6-0.2c-1.2-0.8-1.1-2.7-0.2-3.8
	c1-1.1,2.5-1.5,3.9-1.8c9.7-2.4,19.6-4.2,29.5-5.3c3.3-0.4,6.6-0.7,9.9-1.4C297.3,180.9,308.7,171.7,321.6,173.1z M324.4,243.7
	c0.1-3.4,3.1-6,5.9-8c10.2-7.2,21.5-12.9,32.9-17.9c3.4-1.5,8.4-2.4,10,1c1.6,3.5-2.7,6.8-6.3,8c-8.6,2.9-18.1,4-25.5,9.4
	c-2.6,1.9-4.9,4.4-7.7,6.1C331,244,327.4,245,324.4,243.7z M258.5,34.5c-0.2-2.2,2-4,4.2-4.2s4.3,0.7,6.3,1.6
	c10.4,4.7,20.9,9.4,31.3,14c2.8,1.3,6,3,6.5,6.1c-2.1,3.1-6.9,1.9-10.3,0.3C283.8,46.4,271.2,40.4,258.5,34.5z M654.3,247.9
	c-1.8,2-5.1,1.2-7.6,0.2c-13.3-5-26.7-10-40-15c-2.3-0.9-5.2-3-4-5.2c1-1.9,3.7-1.4,5.7-0.7c11.1,3.9,22.2,7.8,33.4,11.6
	C646.7,240.6,652.3,242.9,654.3,247.9z M388.9,57.7c51.6-2.4,103.2-4.3,154.9-5.7c1.7,0,3.6-0.1,5,0.9c1.2,0.8,1.9,2.3,2.6,3.6
	c11.3,23.8,22.6,47.6,33.9,71.4c-39.9,7.9-80.3,13.5-120.9,16.8c-4.3,0.3-10.2,3.7-7.7,7.2c14.5,19.9,28.5,40.3,41.8,61.1
	c1.3,2.1,2.7,4.7,1.5,6.8c-1.8,3.4-7,1.7-10.3-0.4c-42.1-27.4-84.1-54.8-126.2-82.2c-2.5-1.6-5.3-4.3-4-7c0.9-1.8,3.1-2.3,5-2.6
	c32.4-5.2,64.8-10.5,97.2-15.7C436.2,101,411,88.7,386.5,75.3c-5-2.7-10.7-7.8-8.3-12.9C379.9,58.6,384.8,57.9,388.9,57.7
	 M482.6,133.1c-10,1.7-19.9,3.4-29.9,5.2c-1.4,0.2-2.3,1.8-2,3.1c12.1-1.7,24.2-3.5,36.3-5.2c0.8-0.9,0.2-2.4-0.9-3
	C485.1,132.7,483.8,132.9,482.6,133.1 M416.2,86.2c-4.2-2.5,1.6-5.1-2.8-7.3c-3.6-1.8-7.1-3.6-10.7-5.4c-1.5,0.8-0.1,3.1,1.4,4.1
	c7.8,5.1,6.1,9.4,14.8,12.8C419.5,88.7,417.7,87.2,416.2,86.2 M393,132.8c6.4-1.1,12.7-2.1,19.1-3.2c1.1-0.2,2.4-1.5,1.4-2
	c-8.2-0.3-16.4,0.5-24.3,2.2c-0.9,0.7-0.5,2.3,0.5,2.8C390.6,133.2,391.9,133,393,132.8 M506.1,129.1c6.2,0.7,12.6,0.5,18.8-0.4
	c0.8-0.1,1.7-0.3,2.3-0.8c0.8-0.6,1-1.8,0.6-2.7c-5.5,0.4-11,0.9-16.5,1.3C509.1,126.6,506.6,127.1,506.1,129.1 M469,129.4
	c0.7-0.3,1.5-0.8,1.9-1.4c0.4-0.5,0.5-1.2,0.3-1.9c-5-0.3-10,2-13.2,5.8C461.8,131.9,465.6,131,469,129.4 M493.5,94.4
	c-4,2.7-8.2,5.6-10.2,10c3.9-1.6,7.4-4,10.2-7.1C493.5,96.3,493.5,95.3,493.5,94.4 M544.9,99.8c-3,2.1-5.6,4.6-7.8,7.5
	C541.3,108.7,546.1,104,544.9,99.8 M438.5,133.1c-1.5,0.7-2.4,2.4-2.4,4c3.2,0.9,7-1.4,7.6-4.8C442,132.2,440.2,132.4,438.5,133.1
	 M462.3,102c2,1,4.1,2.1,6.1,3.1c-0.1-3.7-3.9-6.8-7.5-6.1c-1,1,0,3.1,1.4,2.9 M499.6,100.8c-2.3,1.6-4.3,3.6-5.8,6
	c1.9-0.2,3.8-0.4,5.4-1.3c1.6-0.9,2.9-2.7,2.6-4.6c-0.7-0.2-1.5-0.3-2.2-0.5 M418,133.4c-1.6,2.5-2.4,5.5-2.4,8.5
	c3.3-1.7,5.3-5.7,4.6-9.4c-0.8-0.3-1.7,0.2-2,1 M436.7,124.9c0.9,0,1.8,0,2.7,0c0.4-0.8,0.6-1.7,0.4-2.5c-2.9-0.1-5.8-0.2-8.6-0.3
	c-0.8,1,0.1,2.7,1.4,3.1s2.6-0.1,3.8-0.6 M478.4,107.1c-1.7-0.1-3.3-0.2-5-0.2c-0.4,0.7-0.6,1.6-0.5,2.4c2.3,1.3,5.1,1.7,7.7,1.3
	c0.6-1.3-0.8-3.1-2.2-2.8 M479.3,93.7c-3.1,0.1-6,2-7.3,4.8c3.1,1.1,7.1-1.2,7.5-4.5 M415.1,141c1.3-0.5,1.8-2.3,1-3.5
	c-2.9,0.3-5.2,3.1-5.1,6c1.7,0.2,3.3-0.9,3.9-2.5 M493.1,119.8c-0.9-1.3-2.7-1.7-4.1-1s-2.1,2.5-1.5,3.9c2.1,0.4,4.5-0.7,5.6-2.6
	 M456.2,161.3c-0.4-2-1.6-3.8-3.4-4.8c-1.4,0.8-1.9,2.8-1,4.1c0.9,1.3,2.9,1.7,4.2,0.7 M556.6,104.8c-0.9,1.6-1.2,3.5-0.9,5.3
	c0.6,0.5,1.4,0.6,2.1,0.3c2.1-1.5,1.4-5.5-1.1-6.2 M562.4,123c1.4-0.7,1.8-2.7,0.8-3.9c-1.6,0.9-3.2,1.8-4.7,2.7
	c-0.2,0.8,0,1.7,0.5,2.4c1.2-0.4,2.4-0.7,3.6-1.1 M443.3,178.2c-1.1,0.7-0.6,2.5,0.5,3.1c1.1,0.6,2.5,0.3,3.7,0.1
	c1.1-2.1-2.4-4.7-4-2.9 M459.1,118.7c-2.4-0.5-4.6,2.4-3.7,4.6c1.5-0.2,2.9-0.7,4.2-1.5c0-1-0.1-2.1-0.1-3.1 M382.9,138.1
	c-1.5-0.5-3.3,1.2-2.8,2.8c0.5,1.5,2.8,2.1,3.9,0.8s0.3-3.5-1.3-3.8 M481.8,119.5c0.1-0.8,0.2-1.5,0.4-2.3c-2.1-1.1-5.2,0.4-5.6,2.8
	c1.6,0.7,3.5,0.4,4.8-0.7 M571.7,120.9c0.1,0.7,0.3,1.4,0.4,2.1c1.3,0.4,2.9,0.2,3.7-0.8c0.8-1.1,0.5-3-0.9-3.4
	c-1,0.7-2.1,1.4-3.1,2.1 M536.6,80c0.1-0.8,0.2-1.7,0.3-2.5c-2.5,0-4.7,2.3-4.6,4.8c1.6-0.1,3.1-1,4-2.3 M541.3,60.7
	c1.4,0.5,2.8,0.9,4.2,1.4c1.1-2-1.8-4.7-3.7-3.4c-0.2,0.7-0.4,1.3-0.6,2 M485.6,205.3c-1.3-1-3.6,0.1-3.5,1.8
	c1.1,0.9,2.5,1.4,3.9,1.4C486.8,207.5,486.6,206,485.6,205.3 M456.9,84.8c1.3-0.1,2.2-1.6,1.8-2.8c-1.9-0.7-4.4,0.8-4.5,2.9
	c0.8,0.6,1.9,0.7,2.7,0.1 M434.4,156.8c0,0.9,0,1.8,0,2.7c1,0.6,2.3-0.2,2.7-1.3c0.4-1.1,0.2-2.2-0.1-3.3c-1.1-0.4-2.4,0.7-2.2,1.8
	 M491.9,89.6c1.4,0.1,2.7,0.2,4.1,0.3c0.4-0.7,0.6-1.5,0.4-2.3c-1.5-1.2-4.2-0.2-4.5,1.7 M402.6,146.5c1.1-0.5,2.1-1,3.2-1.4
	c-0.1-1.1-0.2-2.2-0.3-3.3c-2,0.4-3.5,2.6-3,4.6 M461.5,87.7c-0.6,0.8,0.2,2.2,1.1,2.1c1.5-0.7,2.4-2.4,2.3-4
	c-1.4,0.1-2.8,0.7-3.6,1.8 M551.2,121.8c1.7,1.1,4.3-1.1,3.5-2.9C553,118.6,551.2,120.1,551.2,121.8L551.2,121.8z M485.4,233.9
	c-6.1,1.3-12.2,2.6-18.4,3.9c-0.9,0.2-1.9,0.4-2.8,0.1c-2-0.8-2.1-3.8-0.7-5.4c1.4-1.6,3.6-2.1,5.7-2.6c3.1-0.7,6.2-1.4,9.3-2
	c2.4-0.5,5.1-1,7.1,0.3S487.8,233.4,485.4,233.9z M525.4,235.3c1.6,1,3.5,2.6,3,4.5c-0.6,2-3.3,2.2-5.2,1.7
	c-5.6-1.3-10.5-5.1-13.2-10.2c0.7-1.5,1.7-2.8,2.9-3.9C517.1,230,521.2,232.7,525.4,235.3z M513.1,218c-1.3,0.9-2.6,1.9-4.2,2
	c-1.6,0.1-3.3-1.2-3.1-2.7c0.1-0.8,0.7-1.4,1.2-2c3.1-3.3,6.5-6.3,10.1-9c1.3-1,2.8-2,4.4-2.1c1.7-0.1,3.5,0.9,3.7,2.5
	c0.2,1.7-1.3,3.1-2.7,4.1C519.5,213.2,516.3,215.6,513.1,218L513.1,218z M497.4,250c-0.8,1.6-1.7,3.3-3.2,4.2
	c-1.6,0.9-4,0.5-4.6-1.1c-0.3-0.9-0.1-1.8,0.1-2.7c1.6-5.6,4.7-10.8,8.9-14.8C501.9,239.6,499.7,245.4,497.4,250z M600.3,68.2
	c-1.3-0.9-1.5-2.9-0.8-4.3s1.9-2.5,3.2-3.4c2.1-1.7,4.3-3.4,6.9-3.9c2.6-0.6,5.7,0.4,6.8,2.9c-3.4,2.5-6.9,5-10.3,7.5
	C604.3,68.2,602,69.5,600.3,68.2z"/>
</svg>
