<?xml version="1.0" encoding="utf-8"?>
<!-- Generator: Adobe Illustrator 19.2.1, SVG Export Plug-In . SVG Version: 6.00 Build 0)  -->
<svg version="1.1" id="Layer_1" xmlns="http://www.w3.org/2000/svg" xmlns:xlink="http://www.w3.org/1999/xlink" x="0px" y="0px"
	 viewBox="0 0 960 560" style="enable-background:new 0 0 960 560;" xml:space="preserve">
<g id="DFL_Shield">
	<path d="M382.5,414.5c-32.6-0.8-68.7,1.6-93.8-19.2c-3.9-3.2-9.7-2.3-14.5-0.8c-29.2,9.1-53.1,33.8-61.2,63.4
		c-5-10.7-2.1-24.6,6.7-32.5c-19.5,9.9-35.1,27.1-43.1,47.4c-3-7.5-2.1-16.5,2.4-23.3c-20,4.4-36.4,22-39.3,42.4
		c-5.6-7.9-6.1-19-1.3-27.4c-6.8-2.5-13.6-5-20.5-7.5c21.4-1.1,42.6-7.1,61.5-17.3c-8.6-2.1-17.4-3.1-26.3-3
		c16.7-6.7,34.7-10,52.6-9.7c-10.8-2.8-21.6-5.7-32.5-8.5c21.2-0.6,42.4-4.4,62.5-11.1c19.7-6.5,41.5-21,39.6-41.6
		c-3.2-34.2,20.9-65.8,21-100.1c0.1-29.9-17.6-56.5-31.8-82.9c-2.1-4-4.3-8.3-3.6-12.8c0.7-4.4,5.6-8.4,9.6-6.5
		c37.8,18.2,87.6,6.3,113.1-27c6.8-8.8,20.5-5.2,31.2-2.1c41.9,12.3,89.6,2.4,123-25.7c40.2,45.7,113.9,57.5,166.4,26.5
		c-12.6,24.9-24,50.5-34.1,76.5c49.5-30.4,99.1-60.8,148.6-91.2c-12.9,3.2-26,5.2-39.2,5.9c20.8-10.9,44.7-15.8,68.2-13.9
		c-7.1,20.9-20.4,39.7-37.8,53.3c6.7-14.8,14.5-29.1,23.3-42.7c-50.8,27-100.5,56.1-148.8,87.3c-5.2,3.3-10.5,6.8-13.9,12
		c-3.5,5.2-4.7,11.6-5.1,17.9c-1.1,17.4,3.8,35,13.5,49.5c9.6,14.1,23.4,24.8,33.3,38.7c9.9,13.8,15.3,33.5,5.9,47.6
		c-5.4,8.1-14.7,12.9-23.9,16.2c-31.9,11.4-66.9,9.6-100.5,13.8c-33.7,4.2-69.7,17-86,46.8C473,425.5,427,415.6,382.5,414.5
		 M522.1,263.4c30-5.3,71.7-0.8,95.4-2.2l33,0.1c2.9-0.5,3.8,0.3,5.2-0.9c1.3-2.1,1.3-4.7,1.3-7.1c0.5-32.9,10.7-65.6,29-93
		c1.1-1.6,2.2-3.4,2.2-5.3c-0.1-2-2.1-3.9-3.9-3.1c-22.8,9.7-48.9,11.8-72.9,5.7c-4.2-1-8.5-2.3-12.7-1.5s-8.2,4.7-7.4,8.9
		c0.4,2.3,2.1,4.2,3.2,6.3s1.2,5.1-0.8,6.4c-8.5-5.4-11.2-18-5.8-26.5c-13.7-3-26.3-10.4-35.5-20.9c-3.8-4.4-8.1-9.7-13.9-9.5
		c-2.2,0.1-4.3,1.1-6.3,2c-11.8,5.6-23.6,11.1-35.3,16.7c-2.5,1.2-5.1,2.5-6.8,4.7c-4,5.5-0.3,13.3-1.8,19.9
		c-1.3,6-1.1,12.2-0.9,18.4c0.7,21.1,1.4,42.3,2,63.4c0.1,4.6,0.4,9.5,3.4,13C499.4,266.7,512.2,261.1,522.1,263.4 M509.1,269.1
		c-4.3,0.2-8.7,0.7-12.4,1.3c-3.3,14-2.6,22.6-1.7,37c2.6,43,6.2,85.9,9.8,128.8c0.1,1.2,1.1,2.9,2.1,2.2
		c20.9-26.3,56.7-35.3,90.2-38.5c33.5-3.3,68.3-2.8,98.9-16.6c9.4-4.2,19-10.9,21-21c1.7-8.7-2.8-17.3-7.6-24.7
		c-6.5-10.1-13.9-19.7-22-28.6c-10.8-11.8-23.5-23.4-27.3-39c-0.7-2.8-4.3-3.4-7.1-3.4c-41-0.1-82.1,1.7-123.1,1.6L509.1,269.1z
		 M288,330.4c-4.6,15-9.2,31.4-3.2,45.8c3.8,9.1,11.4,16.2,20.2,20.8c8.7,4.6,18.5,6.8,28.3,8.2c24.6,3.4,49.6,1.7,74.3,3.8
		c26,2.3,51.5,8.9,75.3,19.5c2.7,1.2,5.6,2.5,8.5,2.2c3-0.3,6-2.8,5.6-5.7c-5.8-47.1-8.7-94.6-8.7-142.1c0-4.2-0.3-9-3.7-11.5
		c-2.3-1.7-5.3-1.7-8.1-1.7c-34.3,0.1-68.6,0.2-102.9,0.4c-10.1,0-20.2,0.1-30.1,1.6c-10.8,1.7-21.7,5.2-32.3,2.6
		c-4.4-1-7.3,4.3-8.6,8.5C297.7,298.8,292.9,314.6,288,330.4 M269.5,171.2c-0.8,4.7,1.9,9.1,4.5,13.2c14.4,22.9,24.6,48.4,30.1,74.9
		c0.6,2.9,1.3,6.1,3.6,7.9c2.1,1.7,5.1,1.9,7.8,2c5.9,0.2,11.8,0.4,17.7,0.7c2,0.1,4.5-0.1,5.5-1.8c2-3.3,6.5-3.6,10.3-3.6
		c21.3,0.1,42.7,0.2,64,0.2c5.8,0,11.8,0,17.2-2.1c3.5-1.3,7.4-0.1,11,0.8c12.8,3.3,26.6,2.2,38.8-2.9c1.5-0.6,3.1-1.4,3.9-2.8
		c0.8-1.3,0.8-3,0.7-4.5c-1.1-35.7-2.9-71.3-5.5-106.9c-7.3-3.2-15.8-3.5-23.3-0.7c-17.4,6.3-35.9-4.5-54.2-6.6
		c-2.4-0.3-5-0.4-7.3,0.3c-4,1.2-6.8,4.6-9.7,7.6C356.1,177.5,307.9,187.7,269.5,171.2z"/>
	<path d="M437.5,111.7c0.5-2.5-0.4-5-1.2-7.4c-2.6-7.6-5.3-15.2-7.9-22.8c-1.5-4.3-2.9-9-1-13.1c2.6-5.4,9.7-6.6,15.6-7.4
		c9.5-1.3,18.8-3.6,27.8-6.8c8.1-2.8,16.4-4.8,24.9-5.8c1.7-0.2,3.6-0.4,5.2,0.3c4.4,1.9,3.9,8.4,1.5,12.6c-1.6,2.7-3.9,5.2-6.9,6.1
		l-7.9,3.9c0,0-21,5.5-24,4.7c-0.4,0.3,0.5,3.4,1.6,3.4c2.3,0.1,8.9-2.3,10.8-2.1c1.5,0.1,9.7-0.5,11.2-0.6c0.4,1.1,0.8,2.1,1,3.2
		c0.4,3.6,0.3,2.7,0.7,6.3c0.2,2,0.4,6.2-0.7,7.8c-3,4.6-9.3,2.4-14.4,4.2c-5.4,1.9-6.1,9.4-4.5,14.9c1,3.7,2.5,7.7,0.8,11.1
		c-1.2,2.4-3.8,3.8-6.3,4.7c-6,2.1-12.9,2-18.4-1.1C440,124.5,436.3,118,437.5,111.7 M487.6,63.8c4.8-1.2,9.3-3.3,13.3-6.2
		c-0.3-1.3-1.1-4.2-1.5-4.3c-3.7-0.9-10.8,1.8-14.7,2.7c-15.6,1.8-30,11.3-45.7,12c-1.1,0-2.4,0.1-3.3,0.7c-2,1.3-1.7,4.4-1.1,6.7
		c2.7,11.3,5.7,22.6,8.9,33.8c1.1,4,2.4,8.2,5.2,11.2c2.8,3,7.8,4.5,11.3,2.3c4.5-2.9,3.9-9.6,2.9-14.9c-1-5.3-1.3-12.1,3.5-14.6
		c3-1.6,6.6-0.7,10-0.9c3.4-0.2,8.4-0.7,7.5-4c-0.3-1,0-4.9-0.8-5.5c-4-2.9-11.5,0.4-16.3,1.9s-11.6,0.8-12.4-4.1
		c-0.7-4.1,3.7-7.1,7.5-8.7C468.9,69.1,487.6,63.8,487.6,63.8z"/>
	<path d="M649.4,119.8c-10.5-0.6-21-1.3-31.4-1.9c-1.4-0.3-14.9-2.8-22.1-3.1c-1.6-0.1-3.3-0.3-4.4-1.4c-0.8-0.9-1-2.2-1.2-3.5
		c-1-9.5,0.5-19.3,4.2-28.2c4-9.6,4-25,9.2-32.3c2.3-5,9.4-3.3,14.8-0.9c0.8,0.4,1.7,0.8,2.3,1.5c2,2.2,1.3,5.6,0.5,8.4
		c-2.4,8.2-4.7,16.3-7.1,24.5c-1,3.4-1.9,7.4,0.1,10.3c1.5,2.3,4.3,3.2,6.8,4.1c8.2,2.7,16.7,5.4,25.2,4c2.9-0.5,5.8-1.5,8.8-1.4
		c4,0.1,8,2.5,9.7,6.2c1.7,3.7,0.9,8.4-2.1,11.1C659.2,120.2,654,120.1,649.4,119.8 M597.3,103.9c0.6,1.6,1.6,3.1,3.1,4.1
		c3.1,2,6.7,2.7,11.1,3c3,0.8,7.9,1.1,9.6,1.5c10.7,0,20.5,1,31.2,1c2,0,5.4,0.3,6.9-0.8c0.9-0.7,0.6-3.2,0.6-4.4
		c-8.4-3.8-21.6-0.4-27.3-2.1c-2.8-0.4-13-2.5-15.8-2.9c-7-1.8-9.3-3.9-10.6-8.6c-1.6-5.4,0.8-11.2,2.7-16.5c2.6-7.3,8-23.6,8-25.5
		c0-0.8-6.1-0.5-7.5-1.4c-3.7,5.7-6.1,14.7-7,23.5C601.4,84.8,593.6,94.6,597.3,103.9z"/>
	<path d="M299.2,504.8c-4.8-3.3-11.5-1.2-16.2,2.2c-4.7,3.4-8.8,8-14.3,9.9c-6.8,2.4-15.7-1-17.4-8c-1.7-7,7.2-14.5,13.1-10.4
		c5.7,4,13.8-3.9,12.1-10.6c-1.8-6.7-9.2-10.4-16.1-11.2c-3.9-0.4-6.2-5-5.6-8.9c0.6-3.9,3.3-7.1,6-9.9c4-4.2,8.4-8.3,13.9-9.9
		c5.5-1.7,12.4-0.3,15.4,4.6c3.1,4.9,0.1,12.9-5.7,13.2c-0.8-4.9-5.9-8.7-10.9-8c-4.9,0.7-8.9,5.6-8.4,10.6
		c12.4,2.7,22.2,14.5,22.6,27.2c9.5-13,20.2-25.3,31.8-36.5c2.5-2.5,7-4.8,9.1-2c1.4,1.8,0.5,4.5-0.5,6.6
		c-3.7,8.1-7.8,16.6-15.3,21.3c-2.4,1.5-5.1,2.6-7.2,4.6c-2,2-3.1,5.4-1.5,7.7c3,4.2,9.5,0.4,12.9-3.5c3.3-3.9,9.5-8.1,12.9-4.1
		c-4.5,4.4-7.1,10.7-7.1,17c20.1-7.8,37.6-21.9,49.6-39.9c1.7-2.6,6.1,0.3,6.1,3.5c0,3.1-2.3,5.8-3.2,8.8c-0.9,3,0.7,7.3,3.8,6.9
		c-3.2,7.1-17.1,0.5-20.8,7.4c-2.1,3.9,1.9,8.9,6.3,9.5c4.4,0.6,8.7-1.7,12.6-3.9c7.4-4.2,14.8-8.3,22.2-12.5
		c4.1-2.3,10.7-3.8,12.3,0.6c1.4,4-3.5,7.2-7.6,8.1c-4.1,0.9-9.3,1.8-10.4,5.9c10.9,3.9,23.1-2,31.2-10.3
		c8.1-8.3,13.5-18.8,21.1-27.5c1.7-2,4.4-4,6.7-2.7c2.7,1.6,1.2,5.7-0.6,8.4c-5.8,8.6-11.6,17.2-17.4,25.8c3.3-2.5,6.9-5.2,11.1-5.7
		c4.2-0.5,9,2,9.5,6.2c0.4,3.5,5.8,3.8,8.5,1.4c2.6-2.4,3.8-6,6.5-8.4c2.7-2.3,8.1-2,8.4,1.5c0.3,3.6-5.3,6.8-3.3,9.8
		c9.7-0.5,19-5.8,24.5-13.8c4,0.7,3.5,6.5,4.1,10.6c0.9,7,9.4,11.8,15.9,9c6.5-2.8,8.8-12.3,4.4-17.7c-2.3-2.8,2.4-6,6-6.6
		c8.8-1.5,17.5-3,26.3-4.5c3.1,2.1,0.2,7-3.2,8.6c-3.3,1.7-7.7,3.3-7.9,7.1c-0.1,3.1,3.3,5.4,6.4,5.3c3.1-0.1,8.6-3.5,11.2-5.2
		c-3.3-1.5-4.2-8.4-0.7-9c3.5-0.6,7.9,4,11.5,3.7c8.7-0.7,12.2-11.6,18.9-17.2c4.2-3.6,10.4-5.1,15.5-2.8c5.1,2.2,8.3,8.5,6.3,13.6
		c-1.6,4.3,3.5,8.6,8,8s8-4.3,10.7-7.9c8.2-11,14-23.8,16.7-37.2c5.8-0.2,7.3,8.2,5.1,13.6s-5.8,11.3-3.1,16.4
		c2.7-4.3,5.6-8.8,9.9-11.7c4.2-2.9,10.3-3.8,14.4-0.8c-4.3,4.1-8.6,8.2-12.9,12.3c-1.2,1.2-2.6,2.6-2.3,4.3c0.4,2.7,4.3,3,6.9,2.3
		c7.4-2.1,14-7,18.1-13.5c3.5-5.5,6.7-13,13.2-13.2c5.4-0.2,9.3,5.2,11.3,10.2c2,4.9,3.1,10.6,1.1,15.5c-2.5,5.9-9,9.1-15.4,10.2
		c-19.7,3.5-41.1-8.2-59.3,0.1c-4.9,2.2-9.1,5.8-14.2,7.5c-5.1,1.7-11.7,0.7-14.1-4.1c-1.9-3.7-0.4-8.3-1-12.4
		c-0.6-4.1-5.9-8.2-8.6-5c-7,8.2-15,15.7-23.8,22c-7.1,5.1-15.5,9.5-24.2,8.7c-8.7-0.8-17.2-8.9-15.3-17.5c1.2,9.5-4.3,19.5-13,23.4
		c-8.7,4-19.9,1.6-26.2-5.5c-1.2-1.4-2.7-3.1-4.6-2.9c-11.3,1.5-22.6,3-33.9,4.4c-3.7,0.5-7.8,0.9-11.1-0.9c-2.4-1.4-4.6-4-7.3-3.6
		c-10.9,1.6-21.8,3.3-32.8,4.9c-6,0.9-12.2,1.8-18,0c-3.6-1.1-7.2-3.1-10.8-2c-2.9,0.9-4.9,3.8-7.7,5c-9.1,3.9-19.4-10.7-27.7-5.4
		C329.9,514,311.9,513.7,299.2,504.8 M685.5,477.5c-2.1,1.7-4.6,3.6-4.8,6.3c7.2,0,13.6-6.4,20.7-5.4c2.1,0.3,2.9-2.6,2.9-4.8
		c0-1.7-0.1-3.4-0.1-5.2c0-2.5-0.6-5.7-3.1-6.3c-2.4-0.5-4.2,1.9-5.5,4C692.9,470.4,689.4,474.3,685.5,477.5 M269,507.2
		c-2.1-0.4-4.3-0.6-6.4-0.7c-1.5-0.1-3.7,0.6-3.4,2.1c0.2,0.8,1.1,1.3,1.9,1.5c2.4,0.6,5,0.6,7.3-0.2c1.1-0.4,2.2-1.7,1.3-2.4
		C269.6,507.3,269.3,507.2,269,507.2z"/>
	<path d="M352,88.1c3.5,6.4,2.5,14.3-0.3,21c-6.2,14.6-19.9,24.5-33.9,31.9c-5.1,2.7-11.5,5.1-16.2,1.9c-6.9-4.8-3-16.7-8.3-23.3
		c-3.3-4.1-2.7-11.9-7.9-12.9c-3.8-0.8-5-6.3-2.9-9.6s5.9-5,9.6-6.5c5.3-2.1,10.5-4.3,15.8-6.4c7.5-3.1,15.3-6.2,23.4-6.3
		S348.1,81,352,88.1 M314.1,134.5c7.9-3.9,15.9-7.9,22.3-13.9c6.4-6,11.2-14.4,10.8-23.2c-0.1-2.7-0.8-5.5-2.5-7.5
		c-3-3.4-8-3.7-12.5-3.4c-11.3,0.7-22.5,3.9-32.5,9.2c-1.9,1-3.8,2.1-4.9,3.9s-1.1,4.5,0.6,5.8c2,1.5,1.2,4.6,1.4,7.1
		c0.3,4.5,4,7.9,5.3,12.2c1.2,4,0.8,9.4,4.7,11C309.2,136.8,311.8,135.6,314.1,134.5L314.1,134.5z"/>
	<path d="M340.6,480.7c0.4,0.9,0.8,1.8,0.7,2.8c-0.1,1.7-1.6,3-3.3,3.3c-1.6,0.3-3.4-0.3-4.6-1.4c-2.3-1.9-3.1-5.8-0.8-7.7
		C335.2,475.7,339.1,477.9,340.6,480.7z"/>
	<path d="M538.7,245.2c-3.4-1.7-4.4-6-5.1-9.7c-1-5.5-2-11.1-3-16.6c-0.9-5.1-1.9-10.3-1-15.4c0.9-5.1,3.9-10.2,8.7-12
		c5.8-2.2,13,0.3,18-3.3c3.7-2.7,8.6-2.8,13.2-2.8c6.5,0,12.9,0,19.4,0.1c5.7,0,12.1,0.4,15.6,4.9c1.4,1.9,2.1,4.2,3.6,6.1
		c3.4,4.5,9.9,5.2,14.4,8.7c6,4.7,6.6,14.8,1.3,20.2c-4.3,4.5-11.4,5.7-15.2,10.6c-1.4,1.8-2.2,4-3.4,6c-5.6,9.2-18,11.7-28.7,10.3
		c-10.7-1.4-20.9-5.6-31.7-6.2C542.6,246.1,540.5,246.1,538.7,245.2 M604.4,216.1c0.6-2.7,1.2-5.9-0.5-8.1c-1.9-2.5-5.6-2.4-8.7-2.2
		c-17.2,1.5-34.4,3-51.6,4.4c-2,0.2-4.1,0.4-5.8,1.6c-1.6,1.2-2.4,3.8-1.1,5.3c2.7,3.1,2.8,7.6,3.1,11.7c0.3,4.1,1.1,8.7,4.6,10.9
		c3,2,7,1.3,10.6,1.4c5.6,0,11,1.7,16.3,3.1c5.4,1.4,11,2.5,16.5,1.5c5.5-1.1,10.7-4.8,12-10.2C601.3,229.1,602.8,222.6,604.4,216.1
		 M548.7,200.4c5.1-0.1,10.1-1,15-2.7c2.3-0.8,4.6-1.7,7-2.2c2.9-0.6,5.8-0.5,8.7-0.4c5.7,0.1,11.4,0.1,17-0.1
		c0.9,0,1.8-0.1,2.6-0.6s1.2-1.6,0.6-2.3c-0.4-0.6-1.3-0.6-2-0.6c-9.9-0.3-19.8-0.5-29.7-0.8c-2.8-0.1-5.8-0.1-8,1.8
		c-2.1,1.8-5,2.3-7.8,2.6s-5.6,0.4-8.2,1.5c-2.5,1.2-4.6,3.8-4.2,6.5c0.1,1,0.7,2,1.6,2.3c0.9,0.3,2.1-0.6,1.9-1.5
		c-0.3-1.2,0.6-2.4,1.7-3C546.2,200.5,547.5,200.5,548.7,200.4 M613.2,205.8c-0.8,0.2-1.2,1.2-1.1,2c0.2,2.7,3.5,4.2,4.2,6.9
		c0.4,1.4,0,2.9,0.1,4.4s1.5,3,2.9,2.5c2.2-5.3,0.3-12-4.4-15.2C614.4,206,613.8,205.7,613.2,205.8 M611.9,221.7
		c-1,1.5,0,3.9,1.8,4.3C615.4,224.7,614,221.3,611.9,221.7L611.9,221.7z"/>
	<path d="M546.5,177.9c-2.1-3.3-4.2-6.8-5-10.6c-0.8-3.8-0.2-8.2,2.6-11c2-2,6-2.4,7.2,0.1c0.7,1.6-0.1,3.4-0.7,5.1
		c-0.8,2.6-0.8,5.5,0.1,8.1c1.4,4.3,5.1,8.2,4.5,12.7c-0.2,1.6-1.5,3.4-3.1,3.1c-1-0.2-1.6-1.2-2.2-2
		C548.8,181.6,547.6,179.8,546.5,177.9z"/>
	<path d="M561.7,163.4c-1.2-2.8-1.2-6,0-8.8c0.9-2.1,2.7-3.9,5-4.1s4.5,2.3,3.6,4.4c-2,4.5,0,9.8,2.7,14c1.3,1.9,2.8,3.9,2.9,6.3
		c0.1,2.3-2.1,4.9-4.3,4.1c-2-0.7-2.3-3.3-3.1-5.3C567.3,170,563.4,167.3,561.7,163.4z"/>
	<path d="M612.8,307.6c8.4-1.3,17.2,0.1,24.8,3.9c-6.5,2.6-12.6,6.1-18.2,10.2c2.9,0.1,5.9,0.2,8.2,1.8c2.4,1.6,3.5,5.3,1.5,7.4
		c-2.2,2.3,0.6,6.2,3.7,6.7c3.1,0.5,6.3-0.8,9.4-0.5c4.8,0.3,9,4.6,9.2,9.4c4.3-1,8.6-1.9,12.9-2.9c1.8,2.4-1.2,5.4-3.8,6.8
		c-2.6,1.4-5.8,3.9-4.5,6.6c0.9,2,3.6,2.2,5.7,2.9c2.1,0.7,4.1,3.6,2.3,4.9c-7.3-1.7-14.4,2.7-21.7,4.3c-7.4,1.7-15.1,0.6-22.6,1.4
		c-21.4,2.4-38.5,20.2-59.8,23c-3.2,0.4-6.9,0.4-9.3-1.8c-2.4-2.2-2.3-7.1,0.9-8c1.9-0.5,0.8-3.8-1.1-4s-3.6,1.2-5.2,2.3
		c-1.6,1.1-3.9,1.9-5.4,0.6c-1.7-1.5-0.7-4.3,1-5.8c1.7-1.4,3.9-2.2,5.4-3.9c1.5-1.7,1.5-4.9-0.7-5.5c-8.4-2.4-12.7-13.6-8.1-21
		c1.3-2.2-2.8-3.7-5-2.5s-4.7,3.5-6.9,2.2c-2.4-1.4-1.1-5.3,1-7.2c2.1-1.9,5-3.4,5.4-6.2c-5.9-0.5-11.7-1-17.6-1.4
		c1-5.6,8.8-8.7,13.4-5.3c1.9-2.7-0.9-6.7-4.2-7.3c-3.3-0.6-6.5,0.8-9.7,1.7c-3.2,1-7,1.3-9.5-0.9c6.3-4.6,11.2-11.2,13.6-18.6
		c1.3-3.9,2.1-8.4,5.3-10.9c2.2-1.8,5.1-2.3,7.9-2.7c9.8-1.6,19.5-3.2,29.3-4.9c5-0.8,10.1-1.7,15-0.6c4.7,1,9,3.8,13.8,4.1
		c3.4,0.2,5.7,3.5,7,6.6c1.3,3.1,2.3,6.7,5.1,8.6s7.9,0.4,7.6-3c-2.2,0.6-4.7,1.2-6.6,0s-2.1-4.9,0.2-5.3c3.7-0.6,7.8,1.1,9.9,4.2
		C614.6,300,614.7,304.3,612.8,307.6 M535.6,300.4c1.5,1.2,4.1-0.3,4.2-2.2c0.2-1.9-1.4-3.7-3.1-4.5c-1.8-0.8-3.8-0.8-5.7-0.9
		c-2.1-0.1-4.6-0.3-6,1.4c0.2,1.6,2.2,2.2,3.8,2.1c1.6-0.1,3.5-0.3,4.6,0.8C534.4,298,534.6,299.6,535.6,300.4 M610.4,328.3
		c1.5-0.4,2.9-0.9,4.3-1.5c1.2-0.5,2.5-2.1,1.4-2.8c-1.3,0.4-2.7,0.2-4,0.1c-1.4-0.1-2.8,0-3.9,0.8c-1,0.9-1.1,2.9,0.1,3.4
		C609,328.7,609.7,328.5,610.4,328.3 M553.2,365c0.5-1.9,1-3.9,1.5-5.8c-2.1-0.4-4.3,0.9-5,2.9c-0.7,2,0.3,4.4,2.1,5.3
		c1.1-0.1,1.8-1.5,1.2-2.4 M569.5,385c-1.3-1.8-4-2.2-5.8-1c0.1,0.6,0.1,1.1,0.2,1.7c1.1,0.9,2.3,1.8,3.7,1.8c1.4,0,2.8-1.4,2.2-2.7
		 M587.9,302.2c1-0.5,0.9-2.1,0.2-2.9c-0.7-0.8-1.9-1.2-3-1.4c-1.4-0.4-2.2,1.9-1.3,3S586.4,302,587.9,302.2 M528.9,307.9
		c-0.2-1.3-2.1-1.7-3.2-0.9c-1.1,0.7-1.6,2.1-2,3.3c0.5,0.3,1.1,0.6,1.6,0.9c1.5-0.7,2.7-1.8,3.5-3.3 M607.6,316.8
		c0.5,0.2,1.1,0,1.6-0.3c-0.3-1-0.1-2.1,0.4-3.1c0.5-0.9-0.6-2.2-1.7-1.9c-1.1,0.2-1.7,1.4-1.7,2.5c0,1.1,0.5,2.1,1,3 M560.8,287.1
		c-0.9,1.3,0.4,3.4,2,3.3c0.8-1.4,1.1-3.1,0.9-4.7c-0.6-0.3-1.4-0.4-2.1-0.3c-0.3,0.5-0.6,1-0.9,1.5 M548.3,292
		c-0.8-1.4-3.4-0.7-3.5,0.9c-0.2,1.6,1.8,2.9,3.3,2.4C548.4,294.2,548.5,293,548.3,292 M647.4,363.6c1.9,0.3,3.9-1.1,4.2-3
		c-1.3-0.3-2.7-0.4-4.1-0.2c-1,0.7-1,2.3-0.1,3.1 M560.4,375.5c0.7,2,4.3,1.4,4.4-0.7C563.8,373.3,561.1,373.7,560.4,375.5
		L560.4,375.5z"/>
	<path d="M398.7,371.9c-13.2,16.8-37.9,23.5-57.8,15.6c-8.2-3.2-15.6-8.9-19.8-16.5s-4.9-17.5-0.6-25.2
		c5.8-10.4,18.3-14.4,28.9-19.7c17.8-9,32.3-23.8,50.5-32c5.5-2.5,12.1-4.4,17.6-1.6c4.8,2.4,7.4,8,7.6,13.4
		c0.2,5.4-1.4,10.6-3.3,15.7c-3.2,8.9-6.8,17.6-10.4,26.3C407.8,356.2,404.3,364.8,398.7,371.9 M359.1,328.7
		c-7.4,3.8-15.4,6.2-22.2,10.9s-12.5,12.4-11.5,20.6c1.1,10,11.6,16.6,21.6,17.4c13.5,1,27.3-6.7,33.5-18.8
		c3.3-6.6,4.6-14.1,8.3-20.4c6.3-10.7,18.7-16.5,26.2-26.4c2.5-3.3,4.4-7.8,2.4-11.4c-2.9-5.3-10.9-3.7-16.2-0.8
		C386.1,307.9,374.2,320.9,359.1,328.7z"/>
	<path d="M313.9,121.1c-1.9-1.9-1.6-7.3-4.4-11.6c-0.9-1.4-1.8-2.9-1.6-4.5c0.1-1.5,1.1-2.7,2.2-3.7c3.3-3.1,7.8-4.9,12.3-5
		c3.1-0.1,6.5,0.9,8.1,3.6c1.3,2.2,0.9,5-0.2,7.2c-1.1,2.2-2.9,4-4.7,5.8C320.6,117.6,316.4,119.9,313.9,121.1z M317.1,112.2
		c0.2,1.1,3.7-3.1,4.6-3.8c2.6-2,3.5-3.7,3.3-4.8c-0.7-3.4-4.8-1.7-6.3-1.3c-1.4,0.4-4.4,2.5-3.6,3.5L317.1,112.2z"/>
	<path d="M440.5,188.1c-0.8,2.7-2.9,5.4-5.6,5.2c-3-0.2-6.5-3.6-8.4-1.3c1.7,3.8,4.2,7.3,7.2,10.3c-2.2,4-6.8,6.1-11.3,7.1
		c-4.5,0.9-9.1,0.9-13.6,2c-4.9,1.2-9.5,3.6-13.9,6c-17.3,9.3-34.5,18.7-51.8,28c-6,3.3-12.6,6.6-19.4,5.5c-6.7-1.2-12.4-9.3-8.6-15
		c1.2-1.7,3-2.9,4.8-4c21.6-13,47.7-18.8,65.9-36.2c4-3.9,7.6-8.2,11.7-12c5.7-5.2,12.5-9.3,19.9-11.8c4.4-1.5,9.1-2.4,13.6-1.2
		C437.9,172.8,442.5,181,440.5,188.1 M380.9,210c-0.6,2.7,2.8,4.9,5.5,4.5c2.8-0.5,4.9-2.5,7.2-4.2c7.2-5.4,16.7-7.5,25.4-5.7
		c1.1,0.2,2.6,0.4,3.2-0.6c-3.7-2.2-5.4-7.1-4.1-11.2c1.3-4.1,5.2-7.1,9.4-7.7c1.2-0.1,2.4-0.1,3.5-0.6c1.1-0.5,2-1.7,1.6-2.9
		c-0.2-0.4-0.5-0.8-0.8-1.1c-4-3.6-10.2-2.3-15.4-0.8c-2.3,0.7-4.7,1.4-6.8,2.5c-10,5.2-13.5,18.7-23.6,23.7
		C383.9,206.8,381.4,207.7,380.9,210z"/>
	<path d="M345.6,360.3c-2.4-2.3-2.6-6.1-1.9-9.4c2-9.3,11.1-16.6,20.6-16.7c3.3,0,6.9,1,8.6,3.8c0.9,1.5,1.1,3.3,1.1,5
		c-0.1,5.7-2.8,11.3-7.1,14.9c-4.3,3.7-10.3,5.4-15.9,4.5C349,362.3,347,361.7,345.6,360.3z"/>
</g>
</svg>
