<?xml version="1.0" encoding="utf-8"?>
<!-- Generator: Adobe Illustrator 19.2.1, SVG Export Plug-In . SVG Version: 6.00 Build 0)  -->
<svg version="1.1" id="Layer_1" xmlns="http://www.w3.org/2000/svg" xmlns:xlink="http://www.w3.org/1999/xlink" x="0px" y="0px"
	 viewBox="0 0 960 212.6" style="enable-background:new 0 0 960 212.6;" xml:space="preserve">
<path d="M46.9,173.4c2-40,3-69,5-109c7,37.5,8,65.3,0.8,102.8c119-13.5,224-26,344.5-17.9c167.2,11.2,334.9,8.4,502.5,5.5
	c-4-32-6.5-64.2-7.5-96.4c-32.5-7.6-66.2-7.7-99.5-7.8c-135.5-0.5-270.9-0.9-406.4-1.4c-33.3-0.1-66.6-0.2-99.9,0.2
	c-63.6,0.9-127.2,3.9-190.7,9c-19.6,1.6-24.3,2.4-43.9,4.2c88.5-13,162.8-19.1,252.2-20.5c30.8-0.5,61.6-0.2,92.5,0
	c103.9,0.8,207.7,1.6,311.6,2.5c60.2,0.5,120.5,1,180.6,3.6c5.2,0.2,12.2,2.2,11.9,7.5c-2.1,35.1,0.9,70.5,9,104.8
	c-169.4,4.2-339,5.8-508.1-5.4C277.7,146.9,168.7,161.2,46.9,173.4L46.9,173.4z M357.7,105.9c9.5,1.7,18.2,7.6,23.3,15.9
	c-0.2,2.2-3.1,3.4-5.2,2.6c-2.1-0.7-3.6-2.6-5.2-4.2c-5-5-11.8-8.1-18.8-8.7c-4.5,3.8,3.5,13.2-1.4,16.5c-1.9,1.3-4.7,0.2-6.1-1.6
	c-1.4-1.9-1.7-4.3-2-6.6c-1.2-10.8-1.5-21.8-0.8-32.6c-2.6,0.1-4.9,2-7.4,2.8c-2.5,0.8-6.2-0.2-6.2-2.9c8.1-8.5,20.7-10.4,32.4-11.9
	c5.2-0.7,10.6-1.3,15.5,0.3c2.1,0.7,4.2,1.8,6.4,1.8c1.7,0,3.4-0.6,5-1.1c11-3.9,22.4-6.4,34-7.5c3.4-0.3,8,0.4,8.3,3.8
	c-4.9,3-10.7,4.6-16.4,4.4c-3-0.1-4.1,3.9-4.3,6.9c-0.2,5.6-0.5,11.2-0.7,16.7c-0.1,3.3-0.2,6.8,1.4,9.6c1.7,2.8,5.8,4.4,8.4,2.3
	c1.6-1.4,4.4,0.2,4.7,2.3c0.2,2.1-1.4,4.1-3.4,4.9c-2,0.8-4.2,0.7-6.3,0.7c-7.3-0.3-14.5-0.6-21.8-0.9c-4.9-0.2-10.6-0.9-12.9-5.2
	c0.4-2.6,3.9-3,6.4-2.7c5.8,0.5,11.5,1.1,17.3,1.6c0.2-11.5-0.3-22.9-1.5-34.3c-7.3,1.6-14.2,4.9-20.9,8.1
	c-9.4,4.6-18.9,9.2-28.3,13.8C350.4,103.8,354.6,105.3,357.7,105.9 M353.3,92c6.1-2.7,12.2-5.5,18.4-8.2c1.3-0.6,2.8-1.9,2.1-3.1
	c-6,0-12,0.9-17.8,2.4c-2.5,0.7-5.2,1.7-6.3,4.1C348.6,89.5,350.9,93,353.3,92z M698.3,72c3.6-0.4,7.4-0.7,10.8,0.5
	c3.4,1.2,6.5,4.1,6.9,7.7c0.3,3.2-1.6,6.2-3.8,8.7c-1.9,2.2-4.1,4.1-6.6,5.7c0.1,1.8,1.8,3.1,3.3,4.2c5.1,3.7,9,8.9,11.1,14.9
	c-7.6,9.3-20.6,12.3-32.7,12.6c-2.6,0.1-5.6,0.2-7.3,2.2c-1.2,1.4-1.5,3.6-3.1,4.7c-1.9,1.2-4.7-0.2-5.6-2.4s-0.5-4.5-0.1-6.8
	c2.5-13.7,5-27.4,7.6-41.1c-4.5,1.7-9,3.4-13.5,5.1c-1.3,0.5-2.8,1-4,0.3c-1.6-0.9-1.7-3.3-0.7-4.8c1-1.5,2.8-2.3,4.5-3
	C675.9,76.1,687,73.3,698.3,72 M684.5,99.7c-3.3,7-5,14.8-4.9,22.6c8.3-2,16.6-4.1,24.8-6.1c2.4-0.6,5.3-1.6,5.8-4.1
	c0.3-1.7-0.7-3.4-1.9-4.7C702.4,101.3,693.1,100.3,684.5,99.7 M704.2,78.5c-3.8,0.1-7.6,0.4-11.4,0.8c-3.1,0.4-6.9,1.6-7.2,4.7
	c-0.2,2.9-0.5,5.8-0.7,8.7c8.1,1.4,16.8-2,21.8-8.4c1.1-1.4,2-3.5,0.9-4.8C706.8,78.6,705.4,78.5,704.2,78.5z M232.2,127.3
	c-1.8-0.2-3.6-0.6-5-1.8c-1.3-1.2-1.9-3.4-0.7-4.8c2-2.2,1.8-5.4,1.5-8.3c-0.7-6.3-1.3-12.5-2-18.8c-0.1-1-0.2-2.1-0.9-3
	c-0.6-0.8-2-1.2-2.7-0.4c-2.5,2.5-6.4,3.7-9.9,2.9c-1.4-1.1-1.4-3.4-0.3-4.9c1-1.5,2.7-2.4,4.4-3.1c8.8-3.9,18.4-6,28.1-6.3
	c8.1-0.2,16.6,1.1,23.2,5.8s10.6,13.6,7.9,21.2c-1.1,3.1-3.2,5.7-5.5,8.1C260.5,123.9,246.1,128.9,232.2,127.3 M243.6,119.9
	c6.8-1.7,13.9-3.6,19.2-8.2c5.3-4.7,8-13,4.1-18.9c-2.7-4.1-7.9-6-12.8-6.8c-5.4-0.9-10.9-0.9-16.2-0.1c-1.2,0.2-2.5,0.5-3,1.5
	c-0.4,0.7-0.3,1.5-0.3,2.3c0.7,8.9,1.5,17.7,2.5,26.5c0.1,1.1,0.3,2.2,1,3C239.3,120.7,241.7,120.4,243.6,119.9z M183.6,110.1
	c6.9,2.1,14.3,4.6,18.3,10.6c-3.7,3.7-9.9,1.4-14.6-1c-5.5-2.9-11.1-5.8-16.6-8.7c-1,6.2-0.7,12.6,0.9,18.7c0.6,2.3-1.9,4.6-4.3,4.4
	c-2.4-0.2-4.3-2.3-5-4.6c-0.7-2.3-0.6-4.7-0.4-7.1c0.7-9.9,1.3-19.8,2-29.7c-2.2,0.3-4,1.9-6.1,2.5s-5.1-0.8-4.6-2.9
	c0.2-0.7,0.6-1.2,1.1-1.7c4.2-4.2,9.7-6.9,15.3-9c5.9-2.1,12.1-3.6,18.3-3c6.2,0.6,12.4,3.5,15.9,8.7c0.8,1.3,1.5,2.7,1.3,4.2
	c-0.2,1.3-1,2.3-1.9,3.3c-5.1,5.8-11.9,10.2-19.2,12.6C183.8,108.2,183.7,109.2,183.6,110.1 M193.4,86.9c-5.6-3-12.3-1.8-18.5-0.5
	c-1.2,0.3-2.6,0.6-3.3,1.7c-0.4,0.7-0.5,1.6-0.5,2.4c-0.1,5-0.3,10-0.4,15.1c8.1-2.6,15.8-6.4,22.9-11.1c1.2-0.8,2.4-1.8,2.7-3.2
	C196.7,89.4,195.1,87.8,193.4,86.9z M897.7,175.4c1.8-0.4,3.2-1.7,4.5-2.9c7.4-7.3,14-15.4,19.5-24.2c6.1-9.8,10.9-21,9.5-32.4
	c-1.5-11.4-11.2-22.3-22.7-21.5c-1.8,0.1-2.5-2.5-1.4-3.9c1.1-1.4,3.1-1.6,4.9-1.5c11.2,0.5,20.8,9.8,24,20.6
	c3.2,10.8,0.8,22.6-4.3,32.6c-5,10.1-12.5,18.7-19.9,27.1c-3.1,3.5-6.3,7.4-6.4,12c1.9,0.4,3.9,0.8,5.3,2.1c1.4,1.3,1.9,3.8,0.5,5.1
	c-0.7,0.7-1.8,0.9-2.8,1.1c-7.9,1.5-15.9,3-23.8,4.5c-3.4,0.6-7.8,0.7-9.1-2.5c5.5-2.5,8.4-9.6,6.3-15.3c-1.1-3.1,3.7-5,6.7-3.9
	S894.5,176,897.7,175.4z M787.3,122.1c1.2,0.7,2.6,0.7,3.9,0.7c7.5,0.1,14.9-0.4,22.3-1.4c3-0.4,6.7-1.6,6.9-4.7
	c0.1-1.4-0.7-2.7-1.6-3.8c-1.9-2.4-4.6-4.1-7.5-5c-0.8-1.6,0.3-3.7,1.9-4.6c1.6-0.9,3.5-1,5.3-1.1c7.3-0.3,14.6-0.6,21.9-0.9
	c2.5-0.1,5.4-0.1,7.2,1.6c1.9,1.7,1.3,5.7-1.2,5.8c-5.3,0.2-10.5,0.4-15.8,0.6c-0.7,0-1.5,0.1-2.2,0.5c-1.8,1.2-0.7,3.9-0.3,6
	c0.8,4-1.9,7.9-5.4,10c-3.5,2-7.6,2.6-11.6,3.1c-9,1.1-18.4,2.2-27.1-0.3c-2.8-0.8-5.8-2.2-7.1-4.8c-2.1-4,0.4-8.8,3-12.5
	c9-13.1,20.5-25.6,35.6-30.7c2.4-0.8,4.9-1.4,7.4-0.9c2.5,0.5,4.8,2.4,5,4.9c-0.1,1.6-1.9,2.7-3.5,2.9c-1.6,0.1-3.3-0.4-4.9-0.6
	c-5.6-0.7-11,2.3-15.5,5.8c-6.7,5.1-12.4,11.5-16.7,18.8C785.2,114.8,783.8,120.1,787.3,122.1z M88.1,129.9c-3-1.3-6.1-3.1-7.2-6.2
	c-1.1-3.1,0.1-6.5,1.6-9.4C89,101,99.9,89.9,113,83.1c3.4-1.7,7-3.2,10.8-3.2c7.2,0.1,13.2,5.6,17,11.7c3.5,5.6,5.7,12.4,4.3,18.9
	c-1.6,7.4-7.5,13.2-14.1,16.9C118,134.8,101.7,135.7,88.1,129.9 M88,122.4c12.1,6.6,27.5,6.6,39.5-0.1c3.1-1.7,6.1-3.9,7.9-7
	c3.2-5.4,2.2-12.2,0-18.1c-1.1-3-2.5-6-5-8c-2.5-1.9-6.4-2.5-8.8-0.4c-1,0.9-2.6,0.3-3.9,0.1c-2.5-0.4-4.9,0.7-7.1,1.9
	C99,97.5,90.5,109.3,88,122.4z M481.3,82.9c0.7-2.1,1.6-4.3,3.4-5.5c1.8-1.2,5-0.5,5.3,1.7c0.1,0.7-0.1,1.4-0.3,2.1
	c-3.2,11.2-7.2,22.1-12.1,32.7c-1.2,2.5-2.4,5.1-4.5,6.9c-2.1,1.8-5.3,2.7-7.7,1.3c-2.7-1.5-3.5-4.9-4-7.9
	c-1.6-8.9-3.2-17.7-4.7-26.6c-5.7,8.9-11.5,17.7-17.2,26.6c-1.2,1.8-2.5,3.8-4.6,4.4c-2.1,0.6-4.9-1.1-4.4-3.2
	c0.1-0.5,0.4-0.9,0.7-1.4c7.6-12,15.3-23.9,22.9-35.9c0.5-0.8,1.1-1.7,1.9-2.1c1.7-1,4-0.1,5.2,1.5c1.2,1.6,1.5,3.6,1.9,5.6
	c1.4,8.7,2.8,17.5,4.2,26.2c0.3,2,1.6,4.5,3.4,3.9C474.3,103.1,477.8,93,481.3,82.9z M312.1,122.7c2-0.1,4-0.2,5.9,0.4
	c1.9,0.6,3.6,2.2,3.7,4.2c0.1,2-1.8,4-3.7,3.4c-8.9-2.7-18.5,0.9-27.8,0.3c-1.3-0.1-2.6-0.3-3.7-0.9c-3-1.9-2.6-6.4-1.4-9.7
	c1.2-3.3,2.9-7,1.4-10.2c-0.7-1.4-1.9-2.5-2.3-4c-0.5-1.5,0.4-3.6,1.9-3.4c3.4,0.4,6.4-2.4,7.5-5.6c1.1-3.2,0.7-6.7,0.4-10
	c-3,0.8-6.4-0.6-8-3.2c2.3-4.3,8.4-4.3,13.4-4.3c5.7,0.1,11.4-0.5,16.9-1.8c1.8-0.4,3.8-0.9,5.6-0.4c1.8,0.5,3.4,2.5,2.7,4.2
	c-0.5,1.4-2.1,2-3.5,2.4c-4.3,1.3-8.7,2-13.2,2c-3.3,0-5.5,3.4-6.2,6.6c-0.7,3.2-0.7,6.7-2.3,9.5c4.1-0.5,8.3-1,12.4-1.6
	c2.8-0.4,6.8,0.2,6.8,3.1c0,2.2-2.6,3.3-4.7,3.8c-4.5,1-9.2,1.6-13.8,1.7c-4.3,0.1-6.3,5.3-7.3,9.5c-0.4,2-0.1,5,2,4.9
	C300.5,123.3,306.3,123,312.1,122.7z M583.1,127.6c-1.7,1.4-3.8,2.8-6,2.3c-2.2-0.5-3.4-3.7-1.6-4.9c5.3-3.4,9.1-9.1,10.2-15.3
	c0.3-1.5,0.5-3.1,1.5-4.2c7-6.9,13.1-14.8,17.9-23.4c1.1-1.9,2.3-4.1,4.4-4.7c2.5-0.7,5.2,1.3,6.2,3.7c1,2.4,0.9,5.1,0.8,7.8
	c-0.3,12.3,1.9,24.7,6.3,36.2c0.9,2.4-2.1,4.8-4.6,4.2s-4-3.2-4.6-5.7s-0.6-5.1-1.3-7.5c-0.7-2.4-2.6-4.8-5.1-5.1
	c-5.9-0.5-13.3-0.2-15.6,5.1C589.8,120.5,586.8,124.5,583.1,127.6 M607.8,91c-3.4,3.2-6.1,7.2-7.8,11.6c3,0.4,6,0.6,9,0.3
	C609,98.9,608.6,94.9,607.8,91z M756,107.8c-3-2.6-7.5-2.7-11.1-1.1c-3.6,1.6-6.3,4.7-8.4,8c-1.5,2.4-3,5.3-5.8,6.1
	c-2.7,0.9-6.3-2.4-4.4-4.6c12.1-14.3,21.7-30.6,28.2-48.2c0.8-2.1,4.1-2.1,5.7-0.5c1.6,1.6,1.9,4.1,2.1,6.3
	c1.8,17.9,3.7,35.8,5.5,53.7c0.3,2.8-4.2,3.8-6.2,1.8c-2-2-2-5.1-1.9-7.9C759.9,116.7,759.8,111,756,107.8 M756.2,82.7
	c-0.8-0.4-1.5,0.6-1.9,1.4c-2.3,5.2-4.6,10.4-6.9,15.6c3.6,0.9,7.2,1.7,10.8,2.6C757.5,95.8,756.9,89.2,756.2,82.7z M491.6,118.1
	c-1-2.3-0.1-5,0.9-7.3c6-13.7,16.5-25.4,29.5-32.9c2.4-0.2,3.8,3.1,2.8,5.3s-3.3,3.5-5.4,4.7c-9.1,5.5-16.3,14-20.2,23.9
	c-0.6,1.6-0.9,3.8,0.6,4.5c6.5,2.8,13.9,3.4,20.7,1.7c2.5-0.6,5.3-2.1,5.6-4.6c0.2-2.2-1.6-4-3.5-5.2s-4-2-5.3-3.9
	c-1.2-1.8-0.8-5,1.3-5.4c6.6-1.4,13.3-2.8,19.9-4.3c2.5-0.5,5.3-1,7.4,0.4s2.2,5.5-0.4,5.9c-4,0.7-8.1,1.4-12.1,2.1
	c-0.8,0.1-1.7,0.3-2.2,0.9c-1.5,1.6,0.4,4,1.4,5.9c1.8,3.3,0.6,7.7-2.1,10.4c-2.6,2.7-6.4,4-10.1,4.7c-8,1.5-16.5,0.6-23.9-2.6
	C494.6,121.4,492.5,120.2,491.6,118.1z"/>
</svg>
