<?xml version="1.0" encoding="utf-8"?>
<!-- Generator: Adobe Illustrator 19.2.1, SVG Export Plug-In . SVG Version: 6.00 Build 0)  -->
<svg version="1.1" id="Layer_1" xmlns="http://www.w3.org/2000/svg" xmlns:xlink="http://www.w3.org/1999/xlink" x="0px" y="0px"
	 viewBox="0 0 480 200" style="enable-background:new 0 0 480 200;" xml:space="preserve">
<path d="M52.4,152.7c93.6-2.7,187.2-5.4,280.8-8.1c1.5,0,3-0.1,4.2-1c1.3-1,1.7-2.7,2.1-4.2c6.3-28.8,7.6-58.8,3.6-88
	c-1.2-9.1-13.2-11.4-22.4-11.3c-37.2,0.5-74.3,3-111.4,5.5C157.9,49,106.7,52.5,55.5,56c-4.1,0.3-10.2-2.5-7.8-5.9
	c0.9-1.3,2.8-1.6,4.4-1.7c64.8-4.3,129.5-8.5,194.3-12.8c29-1.9,58.2-3.8,87.1-1.5c4.3,0.3,9.1,1,12,4.2c2.3,2.6,2.9,6.3,3.3,9.8
	c4,32.7,2.9,66-3.2,98.3c-0.3,1.7-0.7,3.6-2,4.7c-1.4,1.2-3.3,1.3-5.2,1.3c-97,2.6-193.9,5.2-290.9,7.8c-3.1,0.1-7.4-1-7-4.1
	c4-32.9,4.7-66.3,2.1-99.4c5.5,1.1,6.7,8.3,6.6,13.9c-0.2,25.9-0.5,51.8-0.7,77.8c0,1.4,0.1,3,1.2,3.8
	C50.5,152.7,51.5,152.7,52.4,152.7z M414.1,84.1c3.9,0.5,8.5,1.5,9.9,5.2c0.5,1.3,0.5,2.7,0.5,4.1c-0.1,12.7-0.3,25.4-0.4,38.1
	c0,3.3,3.7,5.4,7,5.4c3.3,0,6.4-1.4,9.7-1.7c3.3-0.3,7.2,1,8,4.2c-7.3,7.1-14.8,14.7-17.5,24.5c-1,3.5-2.1,8.1-5.8,8.5
	c-3,0.3-5.2-2.8-6.8-5.3c-4.5-7-10.2-13.3-16.9-18.3c-2-1.5-0.9-5.1,1.4-6.3s5-1,7.5-1.2c2.5-0.2,5.4-1.1,6.4-3.5
	c0.4-1,0.4-2.1,0.3-3.1c-0.2-11.7-0.4-23.4-0.6-35c0-2.2-0.2-4.5-1.6-6.2c-1.4-1.6-3.8-2-5.9-2.2c-8.2-0.9-16.6-1.1-24.9-0.4
	c-2.3,0.2-4.8,0.4-6.8-0.6c-2.1-1-3.4-3.9-2.1-5.7c1-1.5,3.1-1.7,4.9-1.8C391.6,82.3,402.9,82.8,414.1,84.1z M147.8,88.8
	c1.5,2.1,4.6,1.9,7.1,2.1c9.4,0.7,16.7,11.4,13.9,20.4c-1.7,5.5-6.4,9.7-11.6,12.2c-5.2,2.5-11,3.5-16.7,4.4
	c-3.3,0.6-3.7,5.9-6.9,6.8c-2.3,0.7-4.6-1.5-5.1-3.8s0.2-4.7,0.8-7c3-13-0.6-26.6,0.8-39.9c0.1-1.3,0.2-2.8-0.8-3.5
	c-1-0.7-2.4-0.2-3.5,0.4c-3.9,1.9-7.9,3.9-11.8,5.8c-2.2,1.1-4.6-2.1-3.7-4.5c0.8-2.3,3.3-3.6,5.6-4.7c13.2-6.2,27.8-12.5,42-8.9
	c3,0.8,6.4,2.5,6.7,5.6c0.4,3.2-2.7,5.6-5.4,7.4C155.3,84,151.5,86.4,147.8,88.8 M152.5,97.5c-4.8-1.1-9.7-1.4-14.5-0.8
	c-1.2,6-1.6,12.1-1,18.2c0.1,1.6,0.5,3.5,2,4.3c1,0.5,2.1,0.3,3.2,0.2c4.2-0.8,8.3-2,12.2-3.7c4-1.7,8.4-4.7,8.4-9.1
	C162.7,101.6,157.3,98.6,152.5,97.5 M136.7,83.8c0.1,0.6,0.4,1.2,1,1.5c0.8,0.4,1.6-0.1,2.4-0.5c4.7-2.6,9.3-5.3,14-7.9
	c0.6-1.2-1.3-2.1-2.6-2.1c-3.4-0.2-6.9-0.3-10,1C138.4,77.2,135.9,80.5,136.7,83.8z M78.3,141.3c-1.3,1.8-3.7,3.7-5.4,2.3
	c-0.7-0.5-1-1.5-1.1-2.3c-0.9-8.1,10-14.6,7.5-22.4c-0.9-2.8,2.6-4.8,4.8-6.8c2.7-2.4,3.7-6.1,4.5-9.6c2.1-9.6,2.9-19.5,2.4-29.3
	c-0.1-2.3-0.3-4.7,0.7-6.8c1-2.1,3.6-3.6,5.7-2.5c1.6,0.9,2.2,2.9,2.5,4.7c2.8,13.5,5.5,27,8.3,40.5c0.8,3.7,1.5,7.4,2.3,11
	c0.7,3.4,1.4,6.9,1,10.3c-0.4,3.5-2.1,6.9-5.2,8.6c-4.6-3-2.7-10.4-5.6-15c-1.6-2.5-4.7-4-7.6-3.7s-5.6,2.5-6.6,5.3
	C84.4,131.2,81.7,136.5,78.3,141.3 M101.5,112.8c-0.7-6-1.5-12.1-2.2-18.1c-0.3-2.2-1.1-5-3.3-5.3c-0.7,4.9-1.4,9.7-2.1,14.6
	c-0.4,2.8-0.7,5.8,0.7,8.1C96.1,114.5,100.1,115.3,101.5,112.8z M224.7,93.3c-0.7-1.3,0.3-2.8,1.2-4c1.9-2.4,3.7-4.7,5.6-7.1
	c1.2-1.6,3-3.3,4.9-2.8c2.7,0.7,2.4,4.6,1.5,7.3c-2.2,6.6-4.5,13.1-6.7,19.7c-0.7,2.2,1.6,4.4,3.9,4.5c2.3,0,4.4-1.4,6.2-2.8
	c10.2-8.1,18.3-18.8,23.3-30.8c1.2-2.8,5.9-1.3,6.6,1.7c0.7,2.9-1,5.8-2.5,8.4c-2.5,4.4-4.5,9.2-5.8,14.1c-0.9,3.2-1.5,6.8,0,9.7
	c1.5,3,5.9,4.5,8.2,2.2c1.4,4.7-3.8,9.6-8.6,8.7c-4.8-0.9-7.9-6.2-7.4-11.1c0.3-2.6,1.4-5.5-0.1-7.7c-3.4,5.1-8,9.4-13.2,12.5
	c-5,3-12.3,4.5-15.9,0C221.1,109.8,228.4,100.1,224.7,93.3z M207.4,116.1c-4.5,2.4-9.3,4.2-14.2,5.4c-4.5,1.1-9.9,1.5-13.2-1.7
	c-1.8-1.7-2.7-4.2-3.1-6.6c-1.2-6.7,0.9-13.7,4.5-19.5c3.7-5.8,8.8-10.4,14.3-14.5c2-1.5,5.6-2.4,6.2,0c0.9,3.6,4.2,6,6.8,8.7
	c3.8,3.9,6.4,9.2,6.4,14.6S212.2,113.6,207.4,116.1 M183.5,106.4c-0.2,1.7-0.1,3.5,0.8,4.9c2,3.2,6.7,3,10.4,2.2
	c5.8-1.4,12.3-4.6,12.9-10.4c0.4-4.1-2.4-7.9-5.3-10.8c-1.5-1.5-3.2-3-5.4-3c-2.2,0.1-3.9,1.8-5.4,3.5
	C188,96.7,184.2,101.1,183.5,106.4L183.5,106.4z M275.8,67.5c6.1-3,13.2-2.9,19.9-2.8c7.7,0.2,15.5,0.4,23.2,0.6c2,0,4,0.1,5.7,1
	c1.7,0.9,3,3,2.4,4.8c-0.8,2.7-4.4,3-7.2,2.8c-3.8-0.2-7.6-0.4-11.4-0.7c-2-0.1-2.9,2.4-3.2,4.3c-1.3,7.8-2.5,15.6-3.8,23.5
	c-0.6,3.6-1.2,7.4,0,10.9c0.9,2.6,2.8,5.5,1.4,7.9c-1.5,2.6-5.7,2-7.5-0.4c-1.8-2.4-1.8-5.6-1.6-8.6c0.5-10.2,2.1-20.4,4.8-30.3
	c0.5-1.8,1-3.8,0.2-5.6c-1.5-3.4-6.3-3.3-9.9-2.6c-4.7,0.9-9.3,1.7-14,2.6c-1.8,0.3-3.3-1.9-2.8-3.7
	C272.5,69.6,274.1,68.4,275.8,67.5z"/>
</svg>
