<?xml version="1.0" encoding="utf-8"?>
<!-- Generator: Adobe Illustrator 19.2.1, SVG Export Plug-In . SVG Version: 6.00 Build 0)  -->
<svg version="1.1" id="Layer_1" xmlns="http://www.w3.org/2000/svg" xmlns:xlink="http://www.w3.org/1999/xlink" x="0px" y="0px"
	 viewBox="0 0 960 560" style="enable-background:new 0 0 960 560;" xml:space="preserve">
<path d="M685.8,205.2c3.6-0.9,5.9,4.1,5.3,7.7c-0.6,3.7-2.6,7.4-1.4,10.9c4.6-2.3,9.7-3.6,14.8-3.9c2.4-0.1,5.4,0.3,6.3,2.5
	c1.2,2.9-2.1,5.6-5,6.8c-3.4,1.4-6.8,2.6-10.4,3.5c0.2,0.9,0.3,1.8,0.5,2.7c2.3,0.2,4.7,0.4,6.5,1.7c1.9,1.3,2.8,4.2,1.3,6
	c-1.4,1.6-3.9,1.4-5.9,0.9c-3.3-0.9-6.5-2.3-9.3-4.2c-1.5-1-3.5-2.2-5-1.1c-7,5.3-16.8,4.2-25.5,2.9c-1.7-0.3-3.4-0.5-4.8-1.6
	c-2.5-1.9-2.8-5.8-1.3-8.6c1.5-2.8,4.4-4.5,7.4-5.7c1.9-0.7,4.3-1.2,5.7,0.2c2.1,2,0.4,5.4-1.4,7.7c2.4,0.8,4.9,1.5,7.4,1.4
	c2.5-0.1,5.2-1.4,6.3-3.7C681.4,223.1,684.2,214.2,685.8,205.2z"/>
<path d="M277.9,322.1c0.5-1.7-1.8-2.8-3.5-3c-2.9-0.5-5.9-0.9-8.8-0.4s-5.7,2.3-6.8,5c-0.8,2-0.5,4.3-1.1,6.4
	c-0.6,2.1-2.6,4.2-4.7,3.4c-0.8-0.3-1.3-0.9-1.7-1.6c-1.3-2.4-0.6-5.5,0.3-8.1c2.5-8.3,5.1-16.6,7.6-24.9c0.7-2.1,1.9-4.7,4.1-4.6
	c2.6,0.1,3.4,3.8,2.6,6.3c-0.8,2.5-2.3,5.2-1.4,7.6c1.3,3.3,5.8,3.6,9.4,3.2c1.7-0.2,3.6-0.4,4.9-1.5c1.7-1.4,2.2-3.7,2.6-5.8
	c0.8-4.6,1.6-9.3,2.5-13.9c0.4-2.1,3.8-2.2,5.1-0.5c1.3,1.7,1,4.2,0.7,6.3c-1.6,10.5-3.9,20.9-6.7,31.2c-0.2,0.8-0.5,1.7-1.1,2.2
	c-1.4,1.2-3.8,0.1-4.5-1.7C276.8,325.9,277.3,323.9,277.9,322.1z"/>
<path d="M72,255.2c-0.2-7.5,2.7-15,7.8-20.5c2.9,3.2,1.5,8.2,0.2,12.3c-2.5,8.3-3.5,16.9-2.9,25.5c0.1,2,0.3,4.1-0.5,5.9
	s-3.1,3.1-4.9,2.1c-2.1-1.2-1.7-4.2-1.3-6.6c0.4-2.4-0.1-5.7-2.5-5.9c-4.6-0.5-10.5-0.3-12.4,4c-0.8,1.7-0.6,3.7-0.5,5.6
	c0,1.9-0.1,4-1.4,5.4c-1.3,1.4-4,1.4-4.8-0.3c-0.3-0.8-0.2-1.7-0.1-2.5c1.9-11.2,3.8-22.4,5.6-33.6c0.4-2.7,1.7-6,4.4-5.9
	c1.4,5.2,1.1,10.9-0.8,16c-0.5,1.3,0.5,2.7,1.7,3.3s2.6,0.5,4,0.4C67.3,260.3,72.1,258.9,72,255.2z"/>
<path d="M795.7,292.6c1.4,5.6-0.8,11.8-5,15.8c-4.2,4-10,6-15.8,6.3c-2.5,0.1-5.1-0.1-7.2-1.3c-2.2-1.2-3.7-3.7-3.3-6.2
	c1.3-6.6,1.1-13.5-0.5-20c-0.7-2.6,1-5.4,3.4-6.8s5.2-1.6,7.9-1.4C784,279.4,793.5,284.1,795.7,292.6 M771.4,301.7
	c-0.1,1.3-0.2,2.8,0.5,3.9c1.6,2.6,5.5,1.7,8.3,0.5c4.7-2,10.3-5.3,9.8-10.4c-0.4-4.4-5.2-6.9-9.3-8.6c-2.1-0.8-4.5-1.6-6.4-0.4
	c-1.8,1.2-2.2,3.7-2.3,5.8C771.8,295.6,771.6,298.6,771.4,301.7z"/>
<path d="M850.9,298.7c8.9,0.3,17.8,0.5,26.7,0.8c2.5,0.1,5.2,0.2,7.4,1.5c2.2,1.3,3.6,4.2,2.5,6.5c-1.8,3.4-6.7,2.3-10.3,1.2
	c-7.4-2.2-15.3-2.4-22.7-0.7c-2.3,0.5-4.5,1.2-6.8,1.1c-2.3-0.1-4.8-1.1-5.8-3.2c-1-2-0.5-4.4,0-6.5c1.8-7.2,3.6-14.4,5.3-21.6
	c0.6-2.4,1.8-5.3,4.2-5.4c1.7-0.1,3.2,1.5,3.7,3.2c0.4,1.7,0.1,3.5-0.3,5.2C853.4,286.8,852.2,292.8,850.9,298.7z"/>
<path d="M799.7,287.1c1.6-2.6-1-6-0.4-9.1c0.8-4.3,6.6-4.9,10.9-4.6c5.1,0.4,10.2,0.9,15.4,1.3c2,0.2,4.2,0.4,5.8,1.7
	c1.6,1.3,2.1,4.1,0.4,5.3c-0.9,0.7-2.2,0.7-3.3,0.6c-6.8-0.2-13.6-0.5-20.4-0.7c-2.1,2.3-0.5,6.3,2.2,7.8c2.8,1.4,6.1,1,9.2,0.6
	c2.9-0.4,4.1,4.2,2,6.3c-2,2.1-5.3,2-8.2,1.8c-0.6,2-0.3,4.1-0.3,6.2c0,2.1-0.4,4.4-2.1,5.6c-1.7,1.2-4.7,0.3-4.7-1.7
	c0.1-6.4-3.1-12.7-8.3-16.5C796.6,290.5,798.7,288.6,799.7,287.1z"/>
<path d="M783.9,229.5c4.5-0.1,6.5,5.5,6.8,10c0.6,8.5-0.5,17.2-3.3,25.3c-1.2,3.5-2.8,7-5.7,9.1s-7.7,2.2-9.8-0.8
	c-0.9-1.2-1.3-3-0.6-4.3c0.7-1.4,2.6-2.1,3.9-1.3c2.3,1.5,4.9-1.5,5.9-4c2.6-6.2,4.2-12.8,4.7-19.5c0.2-2.4-3.1-3.5-5.3-2.9
	c-2.3,0.7-4.3,2.3-6.7,2.5c-4.1,0.3-7.2-4.3-6.6-8.4c0.5-4,3.6-7.3,7-9.6c2.5-1.7,5.2-3.1,8.2-3.1
	C783,224.9,783.5,227.2,783.9,229.5 M775.4,233.4c2.5,2.5,7.7,0.3,7.7-3.2c-2.8-0.4-5.7,0.7-7.5,2.9L775.4,233.4z"/>
<path d="M371.6,241.6c-2.7,2.7-5.9,5-9.4,6.5c2.2,0.5,4.4,1.1,6.1,2.6c1.7,1.5,2.6,4.1,1.4,6c-2,3.1-6.8,1.4-10-0.4s-8.3-3-9.8,0.4
	c-0.9,2.1-4.3,1.7-5.6-0.1c-1.3-1.9-1.1-4.3-0.9-6.6c0.8-7.8,1.6-15.7,2.4-23.5c0.3-2.8,5-2.6,6.3-0.1c1.3,2.5,0.4,5.5-0.3,8.1
	c-0.7,2.7-1.1,5.9,0.8,7.9c3.1-1.2,6.3-2.4,9.4-3.6c1.9-0.7,3.9-1.4,5.8-1.1C370,237.9,371.9,239.6,371.6,241.6z"/>
<path d="M218.5,243.5c-2.3-1.9-5.7-0.8-8.6-0.2c-2.9,0.6-7-0.3-7.1-3.3c-0.1-2.9,3.5-4.2,6.3-4.7c11.4-1.9,22.8-3.6,34.2-5.1
	c2.7-0.4,4.2,3.6,2.7,5.8c-1.5,2.2-4.5,2.9-7.2,3c-2.7,0.1-5.5-0.3-8,0.8c-4.8,2-6.4,7.8-7.8,12.9c-1.3,5-4.1,10.8-9.3,11.3
	C213.5,256.9,215.2,249.8,218.5,243.5z"/>
<path d="M109.9,290.5c6-3.8,9.3-11.5,7.8-18.5c-3.5-0.2-6.8,2.2-10.3,1.8c-2.9-0.3-5.4-2.8-5.7-5.6c-0.3-2.9,1.5-5.9,4.2-6.9
	c0.9-0.3,1.9-0.4,2.7,0c1,0.6,1.4,2,2.3,2.7c1.5,1.1,3.6,0.2,5-0.9c1.4-1.2,2.8-2.6,4.6-2.8c3.2-0.3,5,3.7,5.4,6.9
	c1.4,12.6-4.8,25.7-15.3,32.7c-2.1,1.4-5.1,2.5-7,0.8c-1.8-1.6-1.2-4.7,0.4-6.4C105.6,292.6,107.9,291.7,109.9,290.5z"/>
<path d="M128.7,345.3c-0.1-4.7,0.7-9.5,2.3-14c-2.2-0.9-4.6-1-6.9-1.6c-2.3-0.6-4.6-2.1-5-4.4c-0.5-2.3,2.2-4.9,4.2-3.7
	c2.7,1.6,6.4,1.5,9.1-0.3c2.6-1.8,4-5.3,3.4-8.4c1.9-0.5,4.4-0.7,5.3,1c0.4,0.8,0.2,1.8,0.5,2.7c0.5,1.8,2.3,2.8,4,3.4
	c1.7,0.6,3.6,1.2,4.7,2.6c1.1,1.4,0.7,4.1-1.1,4.4c-5.9,0.8-12.1,4.8-12.6,10.8c-0.2,2.8,0.9,5.6,0.8,8.5c-0.1,2.8-2.4,6-5.2,5.4
	C129.6,351.1,128.8,347.9,128.7,345.3z"/>
<path d="M629.6,293.7c4,0.2,7.9,2.7,9.7,6.3c1.8,3.6,1.6,8.2-0.6,11.6c-1.3,2-3.4,3.7-5.8,3.8c-2.4,0.2-5-1.5-5.3-3.9
	s2.3-4.8,4.6-3.8c1.8,0.8,3.8-1.7,3-3.5c-0.8-1.8-3.2-2.5-5-1.9c-1.9,0.6-3.3,2-4.6,3.5c-1.3,1.5-2.5,3-3.6,4.7
	c-1.5,2.2-5.3,0.7-6-1.8c-0.7-2.5,0.5-5.1,1.7-7.4c3.6-7,7.2-14,10.8-21c1-2,2.9-4.4,5.1-3.6c2.4,0.9,1.8,4.5,0.8,6.8
	C632.7,286.8,631.2,290.2,629.6,293.7z"/>
<path d="M489.7,309.5c-0.7-1.7-0.1-3.7,0.5-5.5c2.1-6.9,4.3-13.7,6.4-20.6c0.3-0.9,0.6-1.8,1.3-2.4c1.8-1.5,4.8,0.4,5.2,2.8
	c0.3,2.4-0.9,4.6-2,6.7c-1.1,2.1-2.1,4.6-1.2,6.8c0.4,1,1.3,1.9,2.4,1.7c5.2-0.6,10.5,3.8,10.7,9c0.3,5.2-4.6,10.2-9.8,10
	c-4.2-0.1-7.7-2.8-10.9-5.6C491.3,311.7,490.2,310.8,489.7,309.5 M498.8,308c-0.7,0.8-0.2,2.3,0.8,2.8c1,0.5,2.2,0.4,3.2,0.2
	c2.2-0.4,4.5-1.4,5.4-3.4C505.7,305.1,501.1,305.3,498.8,308z"/>
<path d="M827.6,223c1.3,1.7,4,1.4,6,0.5c2-0.9,4.1-2.1,6.2-1.6c1.5,0.3,2.7,1.5,4,2.3c1.3,0.8,3.2,1.1,4.3-0.1
	c1.8-2,5.2-1.7,7.3-0.1c2.2,1.6,3.4,4.2,4.5,6.6c0.8,1.8,1.7,3.7,1.4,5.6c-0.3,1.9-2.2,3.8-4,3.2c-2-0.6-2.5-3.2-3.2-5.2
	c-0.7-2-3.4-3.8-4.7-2.1c-1.3,1.7-2.7,3.5-4.7,4.3c-2,0.8-4.8-0.1-5.3-2.2c-0.4-1.5,0.3-3.7-1.2-4.3c-0.9-0.3-1.8,0.3-2.5,0.9
	c-3.5,2.8-6.9,5.6-10.4,8.4c-1.1,0.9-2.8,0.2-3.5-0.9c-0.7-1.2-0.7-2.6-0.6-4c0.3-3.2,1.2-6.4,2.5-9.3
	C824.3,223.3,826.5,221.6,827.6,223z"/>
<path d="M455,256.7c-1.9-0.1-2.7-2.5-2.9-4.4c-0.4-4.4-0.4-8.9,0.1-13.3c0.4-4,1.2-8.1,3.3-11.6c2-3.5,5.4-6.4,9.4-7
	c2.1-0.3,4.2,0,6.3,0.4c1.9,0.5,3.9,1.2,5.1,2.8c1.2,1.6,0.9,4.3-0.9,5.1c-1.2,0.5-2.5,0.1-3.8-0.2c-3-0.7-6.6-0.4-8.6,2
	c-2,2.4-0.6,7,2.5,7c1.8-0.1,3.6,1.2,4.1,2.9c-0.1,3.8-6.5,3.4-8.9,6.4c-1.3,1.7-1.1,4.1-1.5,6.3C458.9,255.2,456.9,257.5,455,256.7
	z"/>
<path d="M714.3,275c0.2-1,0.4-2,1.2-2.7c1.5-1.4,4.1-0.3,4.9,1.5c0.9,1.8,0.6,3.9,0.3,5.9c-0.6,3.6-1.1,7.2-1.7,10.9
	c3.1,1,6.4,1.6,9.7,1.8c2.4,0.5,1.8,4.5-0.3,5.7c-2.2,1.2-4.8,0.7-7.2,1.2c-2.4,0.4-5,2.8-4,5c0.7,1.6-1.4,3.3-3.1,2.8
	c-1.7-0.5-2.7-2.1-3.4-3.7c-0.7-1.6-1.2-3.4-2.5-4.5c-2.1-1.9-5.3-1.5-8-2.3c-2.7-0.8-4.9-4.7-2.5-6.2c0.7-0.4,1.5-0.5,2.3-0.5
	c3.7,0,7.5,0.4,11.1,1.2C712.1,285.7,713.2,280.4,714.3,275z"/>
<path d="M557.4,296.1c3-0.8,6.5,0.5,8.2,3c-0.6,2.8-3.9,3.8-6.5,4.9s-5.3,4.2-3.5,6.4c1.6,1.9-1.4,4.8-3.8,4.1
	c-2.4-0.7-3.7-3.1-4.8-5.4c-1.1-2.2-2.6-4.6-5-5.2c-2.5-0.5-3.9-3.8-2.6-6c3.9,1.6,9-1.1,9.8-5.3c0.8-4.4,1.7-8.8,2.5-13.2
	c0.4-2.4,1.8-5.4,4.2-4.9c3.4,1.7,3.8,6.5,3,10.2C558.1,288.6,556.5,292.4,557.4,296.1z"/>
<path d="M601.3,215.4c1.8-0.6,3.7,1,4.1,2.8c0.4,1.8-0.1,3.7-0.7,5.5c-0.8,2.4-1.5,4.9-2.3,7.3c0.6,1.4,2.6,0.2,3.9-0.5
	c2.1-1.1,4.8-0.1,6.5,1.6c1.6,1.7,2.5,4,3.3,6.3c0.6,1.7,1.2,3.5,0.9,5.3c-0.3,1.8-1.9,3.5-3.7,3.3c-1.9-1.1-3.3-3.1-3.7-5.3
	c-0.4-2.8-4.8-2.3-7-0.4c-2.1,1.9-4.5,4.6-7.3,3.8c-3-0.9-3.1-5.1-2.4-8.2c1.3-6.2,3.2-12.3,5.6-18.2
	C599.2,217.3,599.9,215.8,601.3,215.4z"/>
<path d="M68.4,336.5c1.7,0,3.5,0,5.1,0.7c3.8,1.5,5.6,6.2,4.5,10.1c-1.1,3.9-4.6,6.8-8.4,8.1c-3.8,1.3-8,1.1-12,0.5
	c-2.1-0.3-4.4-0.9-5.8-2.6c-1.4-1.8-1.5-4.3-0.9-6.5c1.1-4.2,4.4-7.7,8.5-9.2C62.2,336.5,65.3,336.5,68.4,336.5 M71.9,346.8
	c0.7-1,0-2.5-1.1-3c-1.1-0.5-2.4-0.4-3.6-0.2c-4,0.5-8.4,1.2-10.9,4.4c4.5,1.6,9.6,1.5,14.1-0.1C70.9,347.6,71.5,347.3,71.9,346.8z"
	/>
<path d="M758.2,235.2c1-0.2,2.1-0.7,3.1-0.4c1.4,0.3,2.1,1.9,2.1,3.3c0,3.6-3.9,6.2-7.4,5.9c-3.5-0.2-6.6-2.6-8.8-5.4
	c-1.3-1.6-2.5-3.5-4.3-4.6c-1.8-1.1-4.5-1.2-5.7,0.5c-2.2,3.1-7,4.4-10,1.9c-2.9-2.4-1.4-8.4,2.4-8.4c4.8,0,9.1-4.6,13.8-3.5
	C749.5,225.9,751.9,236.2,758.2,235.2z"/>
<path d="M256.3,239.1c-1.1,1.7,1.5,3.4,3.4,4.2c5.1,2.2,8.6,7.8,8.4,13.4c-1.2,0.5-2.4,1-3.6,1.5c-0.7-3-3.8-5.2-6.9-5.3
	c-3.1,0-6.1,1.8-7.8,4.4c-1.9-0.3-3.3-2.2-3.6-4.2c-0.3-1.9,0.3-3.9,0.9-5.8c1.9-6.4,3.9-12.9,5.8-19.3c1.3,0,2.5,0,3.8,0
	C258.5,231.5,258.4,235.9,256.3,239.1z"/>
<path d="M563.6,246.4c-1.6-2.2-1.2-5.4,0.3-7.7c1.5-2.3,3.9-3.8,6.4-5c2.7-1.3,5.7-2.2,8.6-2.8c1.6-0.3,3.5-0.5,4.8,0.6
	c2,1.5,1.4,4.9-0.6,6.5c-2,1.6-4.7,1.7-7.2,1.6c-1.4-0.1-3-0.1-4.1,0.8c-1.1,0.9-0.7,3.2,0.7,3.2c4.8-0.2,9.6,0.7,14,2.5
	c-0.5,3.5-4.3,5.9-7.8,6.1c-3.6,0.2-7-1.2-10.3-2.6C566.6,248.8,564.7,248,563.6,246.4z"/>
<path d="M383.4,317.3c3.8-2.6,8.4-4.2,13-4.5c0.4-1.8-1.6-3.3-3.4-3.7c-1.8-0.4-3.9-0.5-5.2-1.9c-1.5-1.6-1.1-4.4,0.4-6.1
	s3.6-2.5,5.7-3.3c1.7-0.6,3.4-1.3,5.2-1.2c1.8,0.1,3.6,1.2,3.9,3c0.5,2.6-2.2,6.1,0.1,7.6c2.3,1.5,2.3,5,0.8,7.2
	c-1.5,2.2-4,3.5-6.5,4.6c-2.4,1.1-4.9,2.1-7.6,2.1S384.5,319.7,383.4,317.3z"/>
<path d="M390.8,234.2c2.1-1.7,4.3-3.4,7-3.5c2.7-0.1,5.4,2.6,4.4,5c-1,2.4-5,4.1-3.6,6.4c3.4,5.5-1,13.2-7.1,15.3
	c-2.6,0.9-5.9,1-7.7-1.1c-1.8-2.1-0.2-6.3,2.4-5.7c2.9,0.6,5.3-2.8,5-5.7c-0.4-2.9-2.5-5.3-4.5-7.4
	C388.1,236.4,389.5,235.3,390.8,234.2z"/>
<path d="M483.2,238.4c3.4-0.4,7.1-0.4,10.1,1.4c3,1.8,4.8,5.9,2.9,8.8c-0.9,1.4-2.5,2.3-4.1,2.9c-4.1,1.5-8.8,1.7-13,0.5
	c-2.7-0.8-5.5-2.5-6.1-5.2c-0.5-2.5,1-5,3.1-6.4C478.2,239.1,480.8,238.6,483.2,238.4z"/>
<path d="M147.7,223.3c2.4,0.6,2.8,3.7,2.7,6.2c-0.3,7.6-0.5,15.2-0.8,22.7c-0.1,3.3-1.6,7.7-4.8,7.1c-2.4-0.5-3.1-3.6-3.2-6.1
	c-0.3-8,0-15.9,1.1-23.8C143,226.5,144.8,222.6,147.7,223.3z"/>
<path d="M448.8,313.1c-2.4-1.1-3.3-4.2-2.6-6.7c0.6-2.5,2.5-4.6,4.4-6.3c2.2-1.9,5.3-3.7,8-2.6c1.9,0.8,3.1,2.7,4.1,4.5
	c2.1,3.7,4.1,7.4,6.2,11.1c-0.4,1.9-3,2.5-4.9,2c-1.9-0.6-3.5-1.9-5.5-2.2C455.3,312.3,451.8,314.5,448.8,313.1z"/>
<path d="M506.4,235c0.9-2.8,3.7-4.6,6.6-5.2c2.8-0.6,5.8-0.2,8.7,0.2c1.7,0.2,3.4,0.5,4.9,1.4c1.4,0.9,2.4,2.7,1.9,4.3
	c-0.9,2.7-4.8,2.6-7.6,2.2s-6.9,0.8-6.5,3.6c0.4,2.8,0.8,5.9-0.9,8.1c-1.7,2.2-6.2,1.9-6.4-0.8c-0.3-2.8-0.5-5.6-0.8-8.4
	C506,238.6,505.9,236.7,506.4,235z"/>
<path d="M98.7,339.9c1.8-0.2,2.5-2.4,4.1-3.3c2.5-1.5,5.6,0.9,7.6,3.1c1.3,1.5,2.6,3,3.2,4.8c0.6,1.9,0.2,4.1-1.3,5.3
	c-1.6,1.2-4.3,0.5-4.6-1.5c-0.5-2.7-4.4-2.9-6.8-1.7c-2.4,1.3-4.6,3.4-7.3,3.2c-2.9-0.2-5-3.3-5.1-6.2c-0.1-2.9,1.3-5.7,2.7-8.3
	C94,334.5,95.6,340.3,98.7,339.9z"/>
<path d="M603.1,298.9c1-0.4,2-0.7,3-0.4c1.5,0.5,2.2,2.3,2.6,3.8c0.9,3.2,1.7,6.5,2.6,9.7c0.3,0.9,0.5,2.1-0.2,2.8
	c-1.5,1.6-3.6-1.3-5.5-2.4c-4-2.3-8.8,4.3-13.1,2.6c-2.4-0.9-3.2-4.1-2.3-6.5s2.9-4.1,5-5.5C597.7,301.4,600.4,300,603.1,298.9z"/>
<path d="M319.3,253.6c-1.6,0.5-2.6,1.9-4.1,2.5c-1.9,0.7-4.1-0.2-5.4-1.7c-1.3-1.5-2-3.4-2.7-5.3c-0.7-2-1-4.9,1-5.5
	c1.9-0.6,3.3,1.7,5.1,2.5c2.8,1.3,6.1-1.3,9.2-0.7c3,0.6,5,4.3,8,4.2c2.5,0,4.8,2.4,4.6,4.9c-0.2,2.5-2.8,4.6-5.3,4.1
	C325.7,258,323.1,252.4,319.3,253.6z"/>
<path d="M879.4,216c2.4-0.5,5.4,0.2,6.4,2.4c0.8,1.9-0.1,4.1-1.7,5.4c-1.5,1.3-3.6,1.9-5.5,2.5c-1.6,0.5-0.7,3.1,0.9,3.6
	c1.6,0.5,3.4,0.1,4.8,1c2,1.2,1.8,4.6,0,6.1c-1.8,1.5-4.6,1.4-6.8,0.6c-4.5-1.8-7.5-6.7-7.1-11.5C870.9,221.2,874.7,216.9,879.4,216
	z"/>
<path d="M357,313.1c1.6,0.9,1.8,3.2,1.1,4.8c-1.6,3.2-6,4.2-9.4,3c-5.3-2-8.3-8.7-6.2-14c2.2-5.3,9-8,14.2-5.6
	c-0.7,4.2-3.8,7.8-7.8,9.3c-0.5,1.6,1.6,2.7,3.2,2.6S355.6,312.3,357,313.1z"/>
<path d="M320.4,321.1c-2.5-2.8-4.6-6.2-5.2-9.9c-0.6-3.7,0.8-7.9,4-9.9c2.3-1.4,5.1-1.5,7.7-1.6c3,0,7,1.1,6.7,4
	c-0.4,4.2-8.2,2.5-10.2,6.2c-1.1,2.2,0.6,4.7,1.5,7s0.1,6-2.3,5.7C321.8,322.6,321,321.8,320.4,321.1z"/>
<path d="M643.7,307.1c-0.3-3.9,0.9-8.3,4.3-10.2c4.2-2.3,9.6,0.2,12.4,4.1c0.7,1,1.4,2.2,1.5,3.5c0.4,4.5-5.1,6.9-9.6,7.8
	c-2.4,0.5-5.3,0.9-7-0.8C644.2,310.4,643.8,308.7,643.7,307.1 M657.5,304c-0.2-0.7-0.3-1.5-0.5-2.2c-2.8-0.3-6.8,0.3-6.9,3.2
	c2.4,0.9,5.2,0.5,7.2-1L657.5,304z"/>
<path d="M181.2,317.7c-0.5,2.1-1,4.3-2.2,6.1c-1.2,1.8-3.4,3.1-5.5,2.7c-3.7-7.7,0.1-16.7,3.9-24.4c0.7-1.4,1.6-3,3.2-3.3
	c1.6-0.3,3.1,1.2,3.5,2.7c0.4,1.6,0.1,3.2-0.3,4.8C182.9,310.2,182,314,181.2,317.7z"/>
<path d="M295.6,307.2c1.8-1.5,4.4-2.4,6.6-1.4c2.2,1,3.1,4.3,1.3,5.8c-1,0.8-2.3,1-3.4,1.6c-1.1,0.6-1.8,2.3-0.8,3.1
	c3.2-0.5,7.5-0.4,8.5,2.7c1,3.2-2.8,6-6.2,5.8c-4-0.2-7.7-3-9-6.7C291.3,314.3,292.5,309.8,295.6,307.2z"/>
<path d="M679,301.9c1,2,3.9-0.2,6.1-0.8c2.7-0.8,5.3,1.3,7.3,3.3c1.4,1.3,2.8,2.8,3.3,4.6c0.5,1.8-0.4,4.2-2.2,4.6
	c-4,0.9-6.7-6.9-10.3-4.9c-2.5,1.4-5.6,1.9-8.1,0.7s-4.1-4.5-2.9-7C673.4,299.8,677.7,299.4,679,301.9z"/>
<path d="M288.7,244c2.5,1.8,5,3.6,7.4,5.3c1.3,0.9,2.6,1.9,3.3,3.3c0.7,1.4,0.5,3.4-0.9,4.3c-2.2,1.3-4.7-1.3-7.3-1.6
	c-2.1-0.3-4.1,1.1-6.1,0.9c-2.5-0.2-4.3-2.7-4.4-5.2c-0.1-2.5,1.2-4.8,2.9-6.6c0.7-0.8,1.6-1.5,2.7-1.5
	C287.2,243,288,243.5,288.7,244z"/>
<path d="M94.8,262.9c-0.4,1.3-1.6,2.5-1.1,3.8c0.2,0.5,0.6,1,1.2,1.1c2.7,0.7,3.4,4.6,1.6,6.7s-5.3,2-7.5,0.5
	c-2.3-1.5-3.6-4.2-4.1-6.9c-0.7-3.5,0-7.6,3-9.5C90.8,256.8,95.8,259.5,94.8,262.9z"/>
<path d="M898,321.4c1.8-4,3.5-8,5.3-12.1c0.9-2.2,4.5-1.6,5.7,0.4c1.2,2.1,0.6,4.6-0.2,6.9c-1.2,3.6-3,7.1-5.1,10.3
	c-0.9,1.4-2.3,2.9-4,2.8c-1.7-0.1-2.9-1.8-3-3.5C896.7,324.5,897.4,322.9,898,321.4z"/>
<path d="M630.6,240.4c-0.6-2.1-0.8-4.3-0.8-6.5c0-2.8,0.7-5.9,3-7.5c2.3-1.6,6.4-0.3,6.3,2.5c-2.6,1.7-1.9,5.6-1.4,8.7
	c0.5,3.1-1,7.5-4,6.8C631.9,244,631,242.1,630.6,240.4z"/>
<path d="M376.9,279.4c0.8-1.7,1.9-3.7,3.8-3.9c2.6-0.3,4.3,3,3.9,5.7c-0.3,2.6-1.7,5.1-1.6,7.8c0.1,2.4-2.9,4-5.1,3.1
	s-3.3-3.5-3.2-5.9C374.8,283.8,375.9,281.5,376.9,279.4z"/>
<path d="M718.1,229c2.5-0.7,3.4,3.1,3.1,5.6c-0.3,2.7-0.7,5.3-1,8c-2.3,1-5.1-1.1-5.6-3.6c-0.6-2.5,0.4-5,1.3-7.4
	C716.4,230.5,717,229.3,718.1,229z"/>
<path d="M521.7,304.4c-1.2-1.8,0.8-4.4,3-4.2c2.1,0.2,3.7,2.4,3.7,4.5c0.1,2.1-1,4.1-2.4,5.8c-0.4,0.5-0.9,1-1.5,1.3
	c-1.4,0.6-3.1-0.7-3.5-2.1c-0.5-1.5-0.1-3.1,0.3-4.6L521.7,304.4z"/>
<path d="M171.1,338.1c-1.8,2.3-0.2,6.4,2.7,6.8c2.9,0.4,5.7-3,4.6-5.8C177.3,336.4,172.9,335.8,171.1,338.1z"/>
<path d="M725.5,223c0.1-1.9,0.3-4,1.6-5.4c1.3-1.4,4-1.6,4.8,0.1c0.3,0.7,0.3,1.5,0.2,2.2c-0.2,1.8-0.8,3.8-2.4,4.8
	S725.5,224.8,725.5,223L725.5,223z"/>
<path d="M146.6,276.4c2.7-0.2,4.5-3.7,3-6c-1.5-2.2-5.4-2-6.6,0.4C141.7,273.3,143.9,276.6,146.6,276.4z"/>
<path d="M529.9,289.9c1.7-0.7,3.8,0.8,3.7,2.6c0,1.8-2.2,3.2-3.9,2.4c-2.2-1-2-4.4-0.2-6L529.9,289.9z"/>
</svg>
