<?xml version="1.0" encoding="utf-8"?>
<!-- Generator: Adobe Illustrator 19.2.1, SVG Export Plug-In . SVG Version: 6.00 Build 0)  -->
<svg version="1.1" id="Layer_1" xmlns="http://www.w3.org/2000/svg" xmlns:xlink="http://www.w3.org/1999/xlink" x="0px" y="0px"
	 viewBox="0 0 960 560" style="enable-background:new 0 0 960 560;" xml:space="preserve">
<style type="text/css">
	.st0{fill:#FFFFFF;}
</style>
<g>
	<path d="M231.3,434.8c1.7-6.7,3.5-13.4,5.6-21.4c-21,3.4-22.4,25.2-36.6,39.4c-0.8-8-1.2-12.5-1.7-17
		c-22.2-0.7-25.8,19.1-35.5,35.4C162,446,162,446,149.1,439.6c13.8-3.7,26.5-7.2,37.7-10.2c3.3-6.8-15.9-10.1,0.1-15.1
		c5.7-1.8,12.3-0.4,18.4-1c6.5-0.7,13-2,19.1-6.1c-8-0.9-16-1.8-25.1-2.8c5.1-10.6,13.8-9.3,20.6-8.1c29.4,5,49.4-13.9,71.5-27.3
		c2.5-1.5,2.6-7.7,3.2-11.7c1.9-13.6,2.8-27.4,5.4-40.8c2.2-11.3,6.9-22.1,9.7-33.3c6-23.9,5.8-47.1-6.6-69.5
		c-6.7-12.1-12.5-24.8-17.6-37.6c-1.4-3.5,0.6-8.9,2.6-12.7c0.6-1,7,0.1,10.1,1.5c33.9,15.7,63.7,6.6,89-17.3
		c13.1-12.4,23.6-17.4,42.3-11.2c31.3,10.4,63,5.8,91-12.1c22.7-14.5,20.6-12,36.2,3.2c27.5,26.7,73,33.9,109.8,17.5
		c4.2-1.9,8.1-4.8,12.5-5.9c3.1-0.7,6.8,0.9,10.2,1.5c-0.6,2.8-0.4,6.1-2,8.2c-11,14.9-19.1,31.1-25.1,53.5
		c37.8-23.8,72-45.2,108.2-68c-8.1-1.5-13.1-2.4-21-3.8c4.4-3.6,6.4-6.4,8.8-6.9c15.8-3.2,31.7-6.1,47.7-8.7c6.4-1,12.5,2,8.3,8.7
		c-9.2,14.5-15.9,31.3-34.8,38.8c5.7-9,11.4-18,19.2-30.5c-20.1,6.3-34.4,15.9-48.8,25.2c-22.7,14.5-45.5,29-68.3,43.4
		c-9.4,6-23.3,8.1-24.2,22.3c-1.2,18.3-4.1,37.1,10.9,52.5c9.7,9.9,18.6,20.6,27.1,31.5c27,34.7,21,55.6-22,66.9
		c-28.1,7.3-57.8,8.1-86.4,14c-17.9,3.7-35.8,9.6-52,17.9c-9.3,4.8-15.1,16.3-23.3,25.7c-39.8-30.4-87.4-35.3-136.3-34.7
		c-24.9,0.3-49.5-0.2-69.9-18.1c-2.3-2-8.8-1.2-12.3,0.5c-10.4,5.1-20.8,10.5-30,17.3c-6.5,4.8-11.9,11.7-16.5,18.5
		c-4.5,6.6-7.3,14.4-10.8,21.7C234.3,435.9,232.8,435.4,231.3,434.8z M496.6,406.3c0-15.9,0.4-30.4-0.1-44.8
		c-0.5-12.2-2.1-24.4-3.2-36.6c-1.3-15.3-2-30.7-3.8-45.9c-2-16.5-2.4-17.3-17.7-16.9c-45.3,1.2-90.7,2.9-136,5
		c-4.5,0.2-11.5,3.5-12.6,6.9c-7.1,21.9-15.1,43.9-18.5,66.5c-4,27.1,9.9,41.9,37.5,44.9c10.7,1.2,21.6,0.7,32.3,1.1
		c36.9,1.4,73.7,3.4,108.7,17C487.2,405,491.7,405.3,496.6,406.3z M482.9,146.9c-21.7,6.1-40.9,4.3-59.1-2.2
		c-11.5-4.1-18.7-0.6-26.5,7.2c-16.4,16.2-36.7,25.9-59.5,28c-13.2,1.2-26.7-1.6-41.9-2.8c3.1,7,6,13.1,8.5,19.2
		c6.2,14.9,14.3,29.5,17.6,45c2.8,13.1,8.4,16.1,20.1,15.6c43.8-1.9,87.6-3.2,131.4-5.1c14.5-0.6,15.5-1.8,14.8-16.9
		c-1-24.6-2.7-49.1-4.1-73.6C483.9,157.5,483.5,153.8,482.9,146.9z M510.7,412.2c27.5-26.9,61.2-32.7,96.1-36.1
		c21.4-2,43-4.7,63.7-10.2c34.6-9.1,39.6-27.6,17-55.6c-5.3-6.6-11.8-12.2-17.4-18.6c-5.6-6.3-12.1-12.4-15.7-19.8
		c-5.5-11.4-13.4-15.4-25.7-14.8c-36.9,1.9-73.8,3.1-110.7,4.5c-18.4,0.7-19.2,1-18.3,20.6c1,23.8,2.6,47.6,4.5,71.4
		C505.8,372.5,508.4,391.3,510.7,412.2z M589.2,176.1c-1.5,0.3-2.9,0.6-4.4,0.9c-2.1-6-4.1-12.1-6.5-18c-1.2-3.1-2.7-6.6-5.1-8.5
		c-9-7.1-18.3-13.9-28-20.1c-3.2-2.1-8.6-3.7-11.8-2.5c-10.7,4.1-21.1,9.2-31.1,15c-3.4,2-7.2,6.9-7.2,10.5
		c0.2,27.6,1.1,55.2,2.1,82.8c0.5,12.9,8.2,16.3,20.2,15.7c39.1-2,78.2-3.5,117.3-4.9c7.8-0.3,11.2-3.9,11.2-11.3
		c-0.3-24.6,9.2-46.5,19.3-68.1c1.4-2.9,1.6-6.4,2.1-8.6c-26.8,0-51.7,0-76.6,0C590.2,165.2,589.7,170.7,589.2,176.1z"/>
	<path d="M305.2,453.1c8.6,8.9,15.9,16.4,23.1,23.8c9.4-10.2,20.8-22.5,34.9-37.7c-2.3,22.2-4.4,25.9-25,45.5
		c8.4-3.3,12.2-5,16.1-6.3c2.6-0.9,6.1-2.5,8-1.5c13.8,6.8,13.9,7.1,21.7-0.4c8.1-7.8,15.8-16.1,24.6-25.1
		c5.2,16.8-0.5,26.2-18.2,30.1c1.9,1.4,3.8,2.9,5.7,4.3c4.1-0.3,8.6,0.3,12.1-1.3c5.6-2.5,10.1-7.2,15.8-9.5
		c5.3-2.1,11.3-2.3,17.1-3.3c-3,5-6.1,9.9-9,14.6c24.9,0.2,28.5-28,46.8-39.8c4.5,11.3-4.8,16.4-7.5,23.7c3.5,1.8,7,3.9,10.7,5.4
		c2.7,1.1,6.2,3,8.5,2.1c5.5-2,12-15.1,14,2.6c0,0.2,4.3,0.7,6-0.1c4.7-2.4,9.2-5.4,15.4-9.1c1.3,4.1,1.5,8.3,3.7,10.3
		c2.9,2.7,7.7,5.5,11,4.8c3.3-0.7,7.9-5.8,7.9-8.8c-0.1-5.5-2.7-11.4,4.9-12.8c8-1.5,18.7-5,23.9-1.4c12.2,8.4,18.5,6,26.5-5
		c3.4-4.6,11.6-6.5,18.1-7.7c6.7-1.2,11,1.3,11.1,10.3c0.1,8.1,6.5,10.1,11,3.9c5.7-7.9,9.8-17.1,13.8-26.1
		c4.6-10.6,5.3-10.7,14.5-3.2c4.2,3.4,9.8,4.9,16.5,8.1c-4.7,4.9-9,9.4-15.2,15.9c14.9-0.2,19.3-9.7,25.3-17.3
		c8.6-11,14.4-10.5,19.6,1.4c7.2,16.6,2.8,24.2-15.8,26.4c-6.1,0.7-12.4,0.7-18.5,0c-14.6-1.6-28.2-0.5-41.8,6.8
		c-11.4,6.1-13.9,3.5-23.8-15.7c-2,1.1-4.4,1.7-5.8,3.3c-12.8,15.3-26.6,28.3-49.1,23c-16.5,10-32.5,7.5-51,3.4
		c-18.4-4.1-38.7,0.5-58.2,1.8c-17.2,1.1-34.3,3.2-51.5,4.2c-5.1,0.3-10.2-2.1-15.4-2.8c-4.2-0.5-9.5-1.8-12.7,0
		c-11.3,6.6-23.1,5.1-33.5,0.8c-10.2-4.2-17.5-3-25,3.8c-0.6,0.5-1.2,1.3-1.8,1.4c-6.4,1-12.7,2.6-19.1,2.4c-1.4,0-3.8-6.5-3.6-9.8
		c0.4-8.3,7.3-8.1,13.5-9.4c3-0.6,8.1-5.2,7.8-6.1c-1.6-3.8-4.2-8-7.6-9.9c-14.3-8.1-14.9-9.3-3.9-19.7c4.3-4.1,9.7-8,15.3-9.6
		c3-0.9,8.1,2.6,11,5.3c1.4,1.3-0.1,5.6-0.2,8.5c-3.2-0.5-6.5-1.6-9.6-1.3C313.2,450.7,308.8,452.2,305.2,453.1z"/>
	<path d="M647,114.6c-13.8,0-27.6,0.6-41.4-0.2c-14.2-0.8-15.8-2.9-13.9-16.7c1.6-11.4,3.5-22.8,6.1-34.1c1-4.2,3.2-9.3,6.6-11.5
		c3.2-2.1,9-2.3,12.7-0.8c2.2,0.9,4,6.5,3.7,9.7c-0.6,6-3,11.9-4.5,17.9c-3.1,12.5-1.7,14.7,11.2,16.2c6.9,0.8,13.9,0.3,20.8,0.6
		c7.8,0.3,14.1,3.7,13.6,12.3C661.4,116.7,655.2,119.4,647,114.6z"/>
	<path d="M510,44.7c-3,5.4-3.9,8.9-6.1,10.3c-7.1,4.8-9.1,11.4-9.7,19.6c-0.3,3.5-4.1,9-7.1,9.6c-9,1.7-12.1,5.8-9,14.2
		c2.6,7.1,0.9,11.8-6.5,14.2c-7.6,2.5-15.6,4.6-20.4-3.8c-3.8-6.5-6.6-13.8-8.2-21.1c-2.4-10.8-7.7-24.2-3.5-32
		c3.6-6.6,19-6.8,29.2-9.7c9.6-2.7,19.1-5.8,28.9-7.1C501,38.4,505.2,42.4,510,44.7z M462.7,55.1c-5.4,3.2-15.8,7.4-15.4,9.5
		c2.5,13.2,7.3,26,11.8,38.8c0.4,1.1,4.2,2,6,1.4c1.6-0.5,4.1-3.7,3.7-4.6c-6-13.6,1.7-20.9,18.3-27.3
		C460.2,74.3,460.2,74.3,462.7,55.1z"/>
	<path d="M303.5,101.5c10.8-11.2,27.6-15.2,44-18.6c19-3.9,29.1,9.6,22.3,27.8c-7.3,19.4-24.4,27-41.9,33.1
		c-2.2,0.8-8.1-5.2-10.2-9.1C312.7,125,309,114.7,303.5,101.5z M348.1,92.2c-2.7,0.5-7.3,1.1-11.7,2.3c-17.8,5-22.9,20.6-11.3,34.7
		c1.6,2,5.3,3.2,8,3.1c9.4-0.4,26-14.6,29-24.1C365.5,97.7,361.4,92.3,348.1,92.2z"/>
	<path class="st0" d="M496.6,406.3c-4.9-1-9.4-1.3-13.4-2.9c-35-13.6-71.8-15.6-108.7-17c-10.8-0.4-21.6,0.1-32.3-1.1
		c-27.6-3-41.5-17.8-37.5-44.9c3.4-22.6,11.4-44.6,18.5-66.5c1.1-3.4,8.2-6.7,12.6-6.9c45.3-2.1,90.6-3.8,136-5
		c15.3-0.4,15.7,0.4,17.7,16.9c1.8,15.2,2.5,30.6,3.8,45.9c1,12.2,2.7,24.4,3.2,36.6C497,376,496.6,390.4,496.6,406.3z M368,377.1
		c20.5-3.3,37.5-9.1,46.7-26.2c7.6-14.2,14.1-29.2,18.8-44.6c2.1-7.1,1.2-17.9-3-23.4c-5.8-7.6-16-3.4-23.3,1
		c-20.4,12.3-40.9,24.5-60.3,38.3c-19.5,13.9-19.1,30.5,0.4,44.9C353.8,372,362.2,374.4,368,377.1z"/>
	<path class="st0" d="M482.9,146.9c0.6,6.9,1,10.6,1.2,14.3c1.4,24.5,3.1,49.1,4.1,73.6c0.6,15.1-0.4,16.3-14.8,16.9
		c-43.8,1.9-87.6,3.2-131.4,5.1c-11.7,0.5-17.3-2.5-20.1-15.6c-3.3-15.6-11.4-30.1-17.6-45c-2.6-6.2-5.4-12.2-8.5-19.2
		c15.2,1.2,28.8,4,41.9,2.8c22.8-2.1,43.1-11.7,59.5-28c7.9-7.8,15-11.3,26.5-7.2C442,151.2,461.2,153.1,482.9,146.9z M344.7,245.8
		c9-3.8,16.8-6.7,24.2-10.3c21.1-10.4,39.7-25.6,63.9-30.3c6.2-1.2,12-9,16.1-15c7.3-10.8,0.3-23.4-12.5-21.3
		c-9.9,1.6-19.5,7.8-28.3,13.3c-15.5,9.7-30,20.8-45.4,30.7c-7.1,4.5-15.6,6.8-22.5,11.5c-3.8,2.6-7.9,8.5-7.4,12.3
		C333.4,240.2,340.2,242.6,344.7,245.8z"/>
	<path class="st0" d="M510.7,412.2c-2.4-21-4.9-39.7-6.5-58.5c-2-23.8-3.5-47.6-4.5-71.4c-0.8-19.5-0.1-19.8,18.3-20.6
		c36.9-1.4,73.8-2.7,110.7-4.5c12.3-0.6,20.1,3.4,25.7,14.8c3.6,7.4,10.1,13.4,15.7,19.8c5.6,6.4,12.1,12,17.4,18.6
		c22.6,28.1,17.5,46.5-17,55.6c-20.7,5.5-42.3,8.1-63.7,10.2C571.9,379.5,538.3,385.3,510.7,412.2z M569.1,266.3
		c-15.8,2.5-28.5,4-40.9,7c-3.5,0.9-6.5,5.9-8.6,9.7c-2.9,5.2-5,10.9-7,16.6c-0.8,2.4-1.3,6.8-0.1,7.5c13.4,8.5,14.2,25.3,24.2,35.7
		c5.5,5.7,9.9,9.4,2.7,16.9c-1,1,1.8,8,4.5,10c15.5,11.4,29.1,0.4,42.9-4.9c9.2-3.6,17.8-9.1,27.3-11.7c11.5-3.2,23.5-4.1,35.3-6.2
		c1.9-0.3,3.5-1.6,5.3-2.5c-4.8-5-4.1-10-1.5-16c0.5-1.3-4.8-7.2-7.6-7.4c-16-1-23.5-7.4-18.3-24.2c0.3-0.9-1.3-2.8-2.4-3.6
		C606.9,280.4,588.9,267.6,569.1,266.3z"/>
	<path class="st0" d="M589.2,176.1c0.5-5.5,1-10.9,1.6-17.2c24.8,0,49.8,0,76.6,0c-0.5,2.2-0.7,5.7-2.1,8.6
		c-10.1,21.7-19.6,43.5-19.3,68.1c0.1,7.4-3.3,11-11.2,11.3c-39.1,1.4-78.2,2.9-117.3,4.9c-12,0.6-19.7-2.8-20.2-15.7
		c-1-27.6-1.9-55.2-2.1-82.8c0-3.6,3.8-8.5,7.2-10.5c10-5.7,20.4-10.8,31.1-15c3.2-1.2,8.5,0.4,11.8,2.5c9.7,6.2,18.9,13,28,20.1
		c2.4,1.9,3.9,5.4,5.1,8.5c2.4,5.9,4.3,12,6.5,18C586.3,176.7,587.7,176.4,589.2,176.1z M571.4,243.5c0.3,0.9,0.6,1.8,0.9,2.7
		c9-3.2,18.5-5.3,26.7-9.9c6.4-3.5,11.1-10.1,16.6-15.3c8.7-8.2,9.1-15.6-0.4-23c-11.8-9.2-22.9-18.6-40.6-16.7
		c-20.2,2.1-20.5,0-22.4-21.7c-0.2-2.5-1.8-4.9-2.8-7.3c-2.8,2.2-7.3,4.1-7.9,6.8c-0.9,4.1,1.7,8.8,1.4,13.2
		c-0.3,4.8-0.7,11.4-3.8,14c-14.8,12.9-9.8,28.3-5.5,42.6c4.4,14.8,18.7,13.6,30.9,14.4C566.8,243.6,569.1,243.5,571.4,243.5z"/>
	<path class="st0" d="M462.7,55.1c-2.6,19.2-2.6,19.2,24.4,17.8c-16.6,6.5-24.3,13.7-18.3,27.3c0.4,0.9-2.1,4.1-3.7,4.6
		c-1.7,0.5-5.6-0.3-6-1.4c-4.5-12.8-9.3-25.6-11.8-38.8C446.9,62.5,457.3,58.3,462.7,55.1z"/>
	<path class="st0" d="M348.1,92.2c13.2,0.1,17.3,5.5,14,16.1c-3,9.5-19.6,23.6-29,24.1c-2.7,0.1-6.4-1.1-8-3.1
		c-11.7-14.1-6.5-29.7,11.3-34.7C340.8,93.3,345.4,92.7,348.1,92.2z"/>
	<path d="M368,377.1c-5.8-2.7-14.2-5.1-20.8-10c-19.4-14.3-19.9-30.9-0.4-44.9c19.4-13.8,39.9-26,60.3-38.3c7.3-4.4,17.5-8.6,23.3-1
		c4.2,5.5,5.1,16.3,3,23.4c-4.6,15.4-11.2,30.4-18.8,44.6C405.5,368,388.5,373.8,368,377.1z M359.9,326.1
		c-14.5,7.7-19.6,15.2-15.5,23.2c4.4,8.6,20.2,13.8,30.2,8c7.5-4.4,16-10.8,18.9-18.3c5.1-13.5,11.9-24.2,23.8-32.5
		c4.3-3,6.3-9.2,10.2-15.2c-13.8-3.4-21.3,3.2-29.5,8.7c-10.7,7.2-21.8,13.6-32.8,20.4C363.4,322.3,361.6,324.2,359.9,326.1z"/>
	<path d="M344.7,245.8c-4.5-3.2-11.3-5.7-11.8-9c-0.5-3.8,3.6-9.7,7.4-12.3c6.9-4.7,15.4-7,22.5-11.5c15.4-9.9,29.9-21,45.4-30.7
		c8.8-5.6,18.4-11.7,28.3-13.3c12.8-2.1,19.7,10.4,12.5,21.3c-4.1,6.1-9.9,13.8-16.1,15c-24.2,4.7-42.8,19.9-63.9,30.3
		C361.5,239.2,353.7,242,344.7,245.8z M398.7,205.1c1.2,1.2,2.4,2.5,3.6,3.7c11.7-9.4,23.5-18.8,36.8-29.5
		C416,176.9,411,196,398.7,205.1z"/>
	<path d="M569.1,266.3c19.8,1.3,37.8,14,55.8,26.8c1.1,0.8,2.7,2.7,2.4,3.6c-5.2,16.7,2.3,23.2,18.3,24.2c2.9,0.2,8.2,6.1,7.6,7.4
		c-2.6,6-3.3,11,1.5,16c-1.8,0.9-3.4,2.1-5.3,2.5c-11.8,2.1-23.8,3.1-35.3,6.2c-9.5,2.6-18.1,8.2-27.3,11.7
		c-13.9,5.4-27.4,16.3-42.9,4.9c-2.7-2-5.5-8.9-4.5-10c7.2-7.5,2.7-11.2-2.7-16.9c-10-10.4-10.8-27.2-24.2-35.7
		c-1.1-0.7-0.7-5.2,0.1-7.5c1.9-5.7,4-11.4,7-16.6c2.1-3.8,5.1-8.8,8.6-9.7C540.6,270.3,553.3,268.9,569.1,266.3z"/>
	<path d="M571.4,243.5c-2.3,0-4.6,0.1-6.9,0c-12.2-0.8-26.5,0.4-30.9-14.4c-4.3-14.3-9.3-29.7,5.5-42.6c3.1-2.7,3.5-9.2,3.8-14
		c0.3-4.4-2.3-9.1-1.4-13.2c0.6-2.7,5.1-4.6,7.9-6.8c1,2.4,2.5,4.8,2.8,7.3c2,21.7,2.2,23.7,22.4,21.7c17.8-1.8,28.8,7.6,40.6,16.7
		c9.5,7.4,9.1,14.8,0.4,23c-5.5,5.2-10.2,11.7-16.6,15.3c-8.2,4.5-17.7,6.7-26.7,9.9C572,245.3,571.7,244.4,571.4,243.5z M592.8,204
		c-5.9,0.7-11.8,1.6-17.7,1.9c-6.9,0.4-13.9,0.4-20.8,0.6c-6.2,0.3-13.1-0.1-12.9,9.1c0.2,8.3,2.5,15.5,12.2,16.8
		c5.3,0.7,10.8,0.8,16.1,0.9C594.5,233.7,596.7,231,592.8,204z"/>
	<path class="st0" d="M365.1,320.3c10.9-6.8,22.1-13.2,32.8-20.4c8.2-5.5,15.7-12.1,29.5-8.7c-3.9,6.1-5.9,12.2-10.2,15.2
		c-11.9,8.3-18.6,19-23.8,32.5c-2.8,7.5-11.4,13.9-18.9,18.3c-10,5.8-25.8,0.6-30.2-8c-4-7.9,1-15.5,15.5-23.2
		c-1,7.6-8.8,17.1,2.9,21.5c5,1.9,13.6-0.6,18.2-4.2c3.8-3,6.6-11.2,5.2-15.6c-1.1-3.5-9.2-5-14.4-6.9
		C369.8,320.1,367.4,320.5,365.1,320.3z"/>
	<path d="M365.1,320.3c2.3,0.2,4.7-0.2,6.8,0.6c5.2,2,13.2,3.4,14.4,6.9c1.4,4.4-1.4,12.7-5.2,15.6c-4.6,3.6-13.2,6.1-18.2,4.2
		c-11.7-4.4-3.9-13.9-2.9-21.5C361.6,324.2,363.4,322.3,365.1,320.3z"/>
	<path class="st0" d="M398.7,205.1c12.3-9.1,17.3-28.2,40.4-25.8c-13.3,10.7-25,20.1-36.8,29.5C401.1,207.6,399.9,206.4,398.7,205.1
		z"/>
	<path class="st0" d="M592.8,204c3.9,27,1.7,29.7-23.1,29.3c-5.4-0.1-10.8-0.1-16.1-0.9c-9.7-1.3-12-8.6-12.2-16.8
		c-0.2-9.1,6.7-8.8,12.9-9.1c6.9-0.3,13.9-0.2,20.8-0.6C581,205.5,586.9,204.6,592.8,204z"/>
</g>
</svg>
